<svg xmlns="http://www.w3.org/2000/svg" viewBox="0 0 750 500"><g id="freepik--background-complete--inject-29"><rect x="462.42" y="57.72" width="86.42" height="104.82" style="fill:#ebebeb"></rect><rect x="472.29" y="67.28" width="66.67" height="85.69" style="fill:#fff"></rect><rect x="472.29" y="67.28" width="2.6" height="85.69" style="fill:#dbdbdb"></rect><rect x="548.83" y="57.72" width="2.6" height="104.82" style="fill:#dbdbdb"></rect><rect x="494.63" y="79.1" width="15.72" height="46.83" style="fill:#dbdbdb"></rect><path d="M530.19,134.43H487.27v-24h42.92Zm-41.92-1h40.92v-22H488.27Z" style="fill:#ebebeb"></path><rect x="573.57" y="168.47" width="86.42" height="104.82" style="fill:#ebebeb"></rect><rect x="583.44" y="178.04" width="66.67" height="85.69" style="fill:#fff"></rect><rect x="583.44" y="178.04" width="2.6" height="85.69" style="fill:#dbdbdb"></rect><rect x="659.98" y="168.47" width="2.6" height="104.82" style="fill:#dbdbdb"></rect><rect x="610.32" y="200.19" width="13.47" height="34.05" style="fill:#ebebeb"></rect><path d="M638.47,244.85H601.29V220.38h37.18Zm-36.18-1h35.18V221.38H602.29Z" style="fill:#dbdbdb"></path><rect x="60.48" y="57.72" width="192.26" height="294.8" style="fill:#dbdbdb"></rect><rect x="70.96" y="69.53" width="81.19" height="131.13" style="fill:#fff"></rect><rect x="161.08" y="69.53" width="81.19" height="131.13" style="fill:#fff"></rect><rect x="70.96" y="209.58" width="81.19" height="131.13" style="fill:#fff"></rect><rect x="161.08" y="209.58" width="81.19" height="131.13" style="fill:#fff"></rect><rect x="60.48" y="57.72" width="45.54" height="371.76" style="fill:#ebebeb"></rect><polygon points="97.39 77.77 97.74 123.37 97.87 168.97 98.11 260.18 97.87 351.38 97.74 366.99 97.39 392.59 97.03 366.99 96.91 351.38 96.67 260.18 96.91 168.97 97.04 123.37 97.39 77.77" style="fill:#fff"></polygon><polygon points="76.48 88.34 76.83 129.06 77.03 169.78 77.2 251.22 77.03 332.66 76.83 353.38 76.48 384.1 76.12 353.38 75.92 332.66 75.76 251.22 75.92 169.78 76.13 129.06 76.48 88.34" style="fill:#fff"></polygon><polygon points="86.93 97.96 87.28 145.64 87.41 193.31 87.65 288.67 87.41 364.03 87.29 381.71 86.93 429.39 86.58 381.71 86.45 364.03 86.21 288.67 86.45 193.31 86.58 145.64 86.93 97.96" style="fill:#fff"></polygon><polygon points="68.7 80.17 69.05 130.07 69.18 179.98 69.42 279.78 69.18 359.58 69.06 399.49 68.7 429.39 68.35 399.49 68.22 359.58 67.98 279.78 68.22 179.98 68.35 130.07 68.7 80.17" style="fill:#fff"></polygon><rect x="207.21" y="57.72" width="45.54" height="371.76" transform="translate(459.96 487.2) rotate(180)" style="fill:#ebebeb"></rect><polygon points="215.84 77.77 216.19 123.37 216.32 168.97 216.56 260.18 216.32 351.38 216.2 366.99 215.84 392.59 215.49 366.99 215.36 351.38 215.12 260.18 215.36 168.97 215.49 123.37 215.84 77.77" style="fill:#fff"></polygon><polygon points="236.75 88.34 237.1 129.06 237.31 169.78 237.47 251.22 237.31 332.66 237.11 353.38 236.75 384.1 236.4 353.38 236.2 332.66 236.03 251.22 236.2 169.78 236.4 129.06 236.75 88.34" style="fill:#fff"></polygon><polygon points="226.3 97.96 226.65 145.64 226.78 193.31 227.02 288.67 226.78 364.03 226.65 381.71 226.3 429.39 225.94 381.71 225.82 364.03 225.58 288.67 225.82 193.31 225.95 145.64 226.3 97.96" style="fill:#fff"></polygon><polygon points="244.53 80.17 244.88 130.07 245.01 179.98 245.25 279.78 245.01 359.58 244.88 399.49 244.53 429.39 244.18 399.49 244.05 359.58 243.81 279.78 244.05 179.98 244.18 130.07 244.53 80.17" style="fill:#fff"></polygon></g><g id="freepik--Plant--inject-29"><path d="M88.42,339c15.39,15.07,18,38.37,14.73,58.79-.09.46-.8.34-.8-.1,0-4.65.14-9.25.12-13.84l-.23-.62c-4-2.92-7.71-6.22-10-10.74-2.57-5.06-3.58-10.76-5.55-16-.18-.5.36-.35.71-.09,9.36,6.9,12.35,14.33,15,24.26a82,82,0,0,0-1.63-15.46c-2-9.42-6-18.76-12.79-25.75C87.76,339.09,88.15,338.68,88.42,339Z" style="fill:#263238"></path><path d="M85.53,340.71c-2.65.09-4.31,4.32-6.37,5.55a2,2,0,0,1-2.92-.46c-2-2.85.76-6.37,3.39-8.34-1.88.78-3.45,2.14-5.48,2.53a1.93,1.93,0,0,1-2.48-1.49c-.89-3.89,4-5.62,7.33-5.7-1.62-1.13-6.27-4.2-3.8-5.7s8,2.87,9.74,4.31c2.62,2.12,5.74,5.3,5.86,8.62C91,343.91,87.56,341.52,85.53,340.71Z" style="fill:#F36DA8"></path><path d="M85.53,340.71c-2.65.09-4.31,4.32-6.37,5.55a2,2,0,0,1-2.92-.46c-2-2.85.76-6.37,3.39-8.34-1.88.78-3.45,2.14-5.48,2.53a1.93,1.93,0,0,1-2.48-1.49c-.89-3.89,4-5.62,7.33-5.7-1.62-1.13-6.27-4.2-3.8-5.7s8,2.87,9.74,4.31c2.62,2.12,5.74,5.3,5.86,8.62C91,343.91,87.56,341.52,85.53,340.71Z" style="opacity:0.1"></path><path d="M86.29,341.36c-3.38-1.54-9.88.68-10.44-.61-1.12-2.6,4.08-4.39,6.88-4.74-2.58-.7-7.53-1.81-7.38-4.3.19-3,7.59-.43,11.34,2.44,4.72,3.63,4.69,7.12,3.91,7.82C89.53,342.93,86.85,341.61,86.29,341.36Z" style="fill:#F36DA8"></path><path d="M123.47,337.46c-16,14.47-19.42,37.66-17,58.19.07.46.79.36.81-.07.17-4.65.21-9.25.4-13.84l.26-.61c4.12-2.76,7.94-5.92,10.4-10.35,2.76-5,4-10.61,6.15-15.81.2-.5-.34-.38-.71-.13-9.61,6.54-12.88,13.86-15.94,23.67a81.85,81.85,0,0,1,2.22-15.38c2.38-9.34,6.73-18.52,13.76-25.25C124.12,337.62,123.74,337.2,123.47,337.46Z" style="fill:#263238"></path><path d="M126.29,339.32c2.64.19,4.14,4.49,6.15,5.8a2,2,0,0,0,2.94-.35c2.15-2.77-.52-6.4-3.08-8.47,1.86.85,3.37,2.27,5.39,2.74a1.92,1.92,0,0,0,2.53-1.39c1-3.86-3.77-5.77-7.11-6,1.66-1.07,6.43-3.95,4-5.55s-8.07,2.56-9.9,3.94c-2.7,2-5.94,5.07-6.18,8.39C120.75,342.31,124.22,340.06,126.29,339.32Z" style="fill:#F36DA8"></path><path d="M126.29,339.32c2.64.19,4.14,4.49,6.15,5.8a2,2,0,0,0,2.94-.35c2.15-2.77-.52-6.4-3.08-8.47,1.86.85,3.37,2.27,5.39,2.74a1.92,1.92,0,0,0,2.53-1.39c1-3.86-3.77-5.77-7.11-6,1.66-1.07,6.43-3.95,4-5.55s-8.07,2.56-9.9,3.94c-2.7,2-5.94,5.07-6.18,8.39C120.75,342.31,124.22,340.06,126.29,339.32Z" style="opacity:0.1"></path><path d="M125.5,340c3.44-1.41,9.85,1.05,10.46-.21,1.21-2.56-3.91-4.55-6.7-5,2.61-.6,7.6-1.53,7.54-4-.07-3.05-7.57-.72-11.43,2-4.85,3.44-5,6.93-4.2,7.66C122.2,341.39,124.93,340.18,125.5,340Z" style="fill:#F36DA8"></path><path d="M107.15,375.67a155.16,155.16,0,0,1-5,22.88.57.57,0,0,1-1.11-.22c1-7.05,3-14,4-21a105.39,105.39,0,0,0,1.23-21.58c-.67-11.88-3.9-24.52-11.65-33.82-.17-.22.19-.53.36-.33,15.53,18.1,13.06,40.29,13,42.28,2.2-7.49,4.46-16.08,12.78-23.71.35-.33.63-.17.57.39-1.48,13.89-5.35,21.15-13.4,28.58C107.79,371.32,107.5,373.51,107.15,375.67Z" style="fill:#263238"></path><path d="M94.53,324c-2.79-1.24-6.65,2.32-9.41,2.56a2.29,2.29,0,0,1-2.8-1.95c-.68-4,4-6.23,7.73-6.94-2.35-.15-4.66.48-7-.14a2.21,2.21,0,0,1-1.83-2.79c1-4.49,7-3.83,10.48-2.23-1.12-2-4.4-7.51-1.08-7.83s6.82,7,7.94,9.38c1.65,3.52,3.29,8.39,1.74,11.89C98.55,330,96.23,325.86,94.53,324Z" style="fill:#F36DA8"></path><path d="M94.53,324c-2.79-1.24-6.65,2.32-9.41,2.56a2.29,2.29,0,0,1-2.8-1.95c-.68-4,4-6.23,7.73-6.94-2.35-.15-4.66.48-7-.14a2.21,2.21,0,0,1-1.83-2.79c1-4.49,7-3.83,10.48-2.23-1.12-2-4.4-7.51-1.08-7.83s6.82,7,7.94,9.38c1.65,3.52,3.29,8.39,1.74,11.89C98.55,330,96.23,325.86,94.53,324Z" style="opacity:0.1"></path><path d="M95,325.06c-2.73-3.31-10.6-4.28-10.52-5.89.15-3.27,6.44-2.51,9.52-1.46-2.33-2-6.9-5.67-5.49-8.18,1.73-3.06,8.09,3.38,10.53,8.25,3.08,6.13,1.29,9.74.13,10.08C97.56,328.31,95.45,325.6,95,325.06Z" style="fill:#F36DA8"></path><path d="M117.37,379.86l6.84,52.3H82.56c.85-4.63,8.61-52.36,8.61-52.36Z" style="fill:#F36DA8"></path></g><g id="freepik--character-4--inject-29"><path d="M565.52,345.56a1.52,1.52,0,0,0-.07.18c-.16.36-.54,1.26-1.12,2.63-.39,1-.89,2.15-1.46,3.54s-1.18,2.83-1.87,4.5c-.81,2-1.72,4.2-2.7,6.62l-.47,1.16a.14.14,0,0,0,0,.06c-.11.27-.22.54-.34.81-7.11,17.59-17.5,44.16-25,67.14H471.18c10-32.42,25.48-74.32,30.23-87,.53-1.42.92-2.47,1.16-3.1l.27-.71L512,342l7.45.5,13.12.87,10.58.71,13.73.91,3.36.23h.06Z" style="fill:#37474f"></path><path d="M555.91,352.07l0,.1q-2.21,5.11-4.36,10.26c-1.15,2.72-2.28,5.43-3.39,8.16q-4.56,11.06-8.89,22.19Q532.53,410,526.35,427.4c-.24.64-.46,1.28-.69,1.92l-.33.93c-.12.34-.24.68-.35,1s-.22.62-.32.93h-1.14c.49-1.4,1-2.8,1.49-4.19.11-.34.24-.69.36-1l.69-1.93c.09-.25.18-.51.28-.76Q536,397.35,547,371q2-4.68,4-9.33,2.1-4.89,4.24-9.77a.39.39,0,0,1,.68-.05A.32.32,0,0,1,555.91,352.07Z" style="fill:#263238"></path><path d="M587.46,403s-.18,13-.35,29.18h-61.8c0-.65,0-1.3,0-1.95,0-1.1,0-2.19,0-3.27.23-19.32.51-35.68.56-38.81,0-.35,0-.54,0-.54l-.25-.1L519,384.89a10.75,10.75,0,0,1-1.18-1h0q-.57-.57-1.14-1.26a41.14,41.14,0,0,1-5.33-9.5c-.66-1.53-1.29-3.15-1.89-4.8a145.17,145.17,0,0,1-4.6-15.59c-.63-2.73-1.14-5.24-1.48-7.32-.21-1.26-.36-2.36-.45-3.27q0-.4-.06-.75L512,342l7.45.5,13.12.87,10.58.71,13.73.91h0l3.36.22h.06l5.23.35,20.05,1.34s.09.32.24.91l.21.84c.14.54.3,1.21.48,2,.26,1.12.56,2.46.87,4a1.16,1.16,0,0,1,0,.18C589.79,366.41,593,388.29,587.46,403Z" style="fill:#37474f"></path><path d="M517.12,383.64a142.1,142.1,0,0,1,18.81,8.19c.23.12.05.4-.2.3-6.35-2.58-12.83-5.08-19-7.92C516.24,384,516.61,383.47,517.12,383.64Z" style="fill:#263238"></path><path d="M517.34,349.2c0-.17.43-.19.41,0a130.53,130.53,0,0,0,0,16.78c.13,2.59,1.87,17,7.74,16.35,1-.11,1.52-.81,1.75-1.93.28-1.34-.28-3-.48-4.41a90,90,0,0,1-.89-9.08,63,63,0,0,1,1.36-16.82c0-.18.38-.14.37,0a119.2,119.2,0,0,0,.22,23.36c.47,3.75,2.52,9.48-2.54,9.72s-7.85-9.32-8.3-11.91A66.1,66.1,0,0,1,517.34,349.2Z" style="fill:#263238"></path><path d="M525.29,382.7a20.52,20.52,0,0,1,1.1,3,5.28,5.28,0,0,1,.38,2.46c0,.16-.3.15-.4,0a7.73,7.73,0,0,1-1.19-2.45c-.38-.94-.79-1.88-1.13-2.83C523.82,382.33,525,382.09,525.29,382.7Z" style="fill:#263238"></path><path d="M526.37,432.2H525c0-.31,0-.62,0-.93l0-3.26,0-4.33q.06-8.51.13-17c0-5.36.08-13.07.48-18.61,0-.18,0-.36,0-.53s0-.1,0-.15a.19.19,0,0,1,0-.13.21.21,0,0,1,.36.15c0,.18,0,.37,0,.56s0,.2,0,.31c.39,6.22.08,14.57.1,20.6q0,7.71.07,15.42c0,1,0,2.07,0,3.11v.43C526.36,429.29,526.36,430.74,526.37,432.2Z" style="fill:#263238"></path><path d="M576.47,376.07c-5.72-1.15-11.83-2.3-15.44-7.37a21.32,21.32,0,0,1-3.31-7.87c-.71-3.17-.83-6.45-1.53-9.6a.11.11,0,0,0-.22,0,31,31,0,0,0,.51,10.48,20.58,20.58,0,0,0,3.53,8c3.89,5.12,10.34,6.29,16.4,6.63C576.58,376.37,576.63,376.11,576.47,376.07Z" style="fill:#263238"></path><path d="M584,387.1a61.91,61.91,0,0,1-2.84,11.69c-2.3,7.25-2.34,14.67-2.4,22.2l-.09,11.21h-1c0-5.4.08-10.81.17-16.21a77.67,77.67,0,0,1,.76-10.56,67.29,67.29,0,0,1,2.79-10.23c2.31-7.21,2.43-14.88,2.1-22.38a125.53,125.53,0,0,0-1.36-13.67c-.26-1.75-.57-3.49-.91-5.23-.13-.71-.27-1.41-.43-2.11-.07-.37-.15-.75-.23-1.12s.36-.37.42-.1l.24,1c.19.81.37,1.61.55,2.42.34,1.58.64,3.16.91,4.75a131.28,131.28,0,0,1,1.67,15.88A77.75,77.75,0,0,1,584,387.1Z" style="fill:#263238"></path><path d="M532.58,258.38c-6.46,11.33-32.36,52-49.35,58.09-11.44,4.09-52.35-9.23-61.75-14.9-3.85-2.33,10.69-33.57,15.47-33.16,5.21.45,35.32,14.29,38.83,13.53s29-20.84,44.83-30.47C530.11,245.7,536.21,252,532.58,258.38Z" style="fill:#eb9481"></path><path d="M432.94,306.66c-7.73-1.66-32.26-13.7-36.56-17.14s-16-14.27-13.66-17.83,6-.67,6-.67-4.68-5.78-1.55-8.72c2.5-2.34,7.87,1.46,7.87,1.46s-4.79-6.61-1.32-9.12c3.17-2.29,7.93,3.27,7.93,3.27s-3.45-5.94,0-7.56c4.18-1.95,10.16,8.33,15.2,11.78,1.14.78,32.82,10.59,32.82,10.59Z" style="fill:#eb9481"></path><path d="M401.73,257.56c5.26,7.24,7.65,10.08,15.29,14,.15.08.07.32-.09.25-7.84-3.2-10.91-6.37-15.58-14.1C401.13,257.38,401.48,257.22,401.73,257.56Z" style="fill:#263238"></path><path d="M395.1,263.74c5.27,7.44,8.81,10,16.51,14.75.11.06,0,.25-.11.2-7.94-4-12.39-6.71-16.68-14.84C394.62,263.49,394.86,263.4,395.1,263.74Z" style="fill:#263238"></path><path d="M389.08,271.26c5.62,6.83,9.31,10.05,17.38,13.69a.16.16,0,0,1-.12.3c-8.58-2.91-13.22-6.89-17.45-13.8C388.6,271,388.72,270.83,389.08,271.26Z" style="fill:#263238"></path><path d="M449.66,272.72s-8.31-6.2-12.1-9.35-13.3-13.49-17.43-12.56c-4.64,1.05.65,12.7,7.38,18.35,0,0-5.68,13.27.53,19,1.35,1.25,10.21,4.45,12.18,3.72Z" style="fill:#eb9481"></path><path d="M428,270c-2.39,5.09-3.46,12.43-.43,17.14a.13.13,0,0,1-.21.16c-3.93-4.62-2.77-13.12-.36-17.54C427.46,268.89,428.61,268.66,428,270Z" style="fill:#263238"></path><path d="M449.66,272.72l-16.72,33.94a9.64,9.64,0,0,0,7.34,8.19c6.86,1.8,34.91,7.21,44.87,2s35.9-35.75,46.14-55-8.35-12.8-11.73-10.59-43,29.08-44.53,29.29-12.66-5.79-17.71-7.4S449.66,272.72,449.66,272.72Z" style="fill:#F36DA8"></path><path d="M469.78,319c6.23.16,11.9-.35,15.36-2.16,10-5.22,35.91-35.76,46.15-55,.65-1.21,1.18-2.33,1.61-3.34Z" style="fill:#263238"></path><path d="M592.34,355.2c.06-.1-92.24-10.15-92.24-10.15-.18-.38,11.38-73.17,21.84-91.93,3.54-6.36,14.82-10.44,24.86-1.89C574.05,274.42,592.27,355.29,592.34,355.2Z" style="fill:#F36DA8"></path><path d="M590.82,349.07c-.06-.25-.13-.51-.19-.77h0l-3.45-.35-1.35-.14-20.36-2.07-5.16-.53h-.06l-3.4-.35-13.9-1.41L532,342.33l-11.75-1.19-6.82-.69L501,339.18c-.06.33-.11.65-.17.95s-.09.6-.14.88-.09.6-.13.88l2,.2.33,0,8.26.84,7.55.77,14.87,1.51L544,346.3l13.91,1.42,6.47.65,18.95,1.93,3.22.33,4.83.49h0C591.19,350.5,591,349.82,590.82,349.07Zm-2.28-8.61-.39-1.45h0l-34.69-3.53-13.12-1.33-13.59-1.38-.54-.06-2.62-.27-21.09-2.14c-.18.94-.33,1.84-.48,2.71l17.91,1.82,4.34.44,4.1.42L541,337l13.5,1.37,34.44,3.5h0C588.81,341.38,588.67,340.92,588.54,340.46Zm-45.61,3L532,342.33l.56,1,1,1.89L544,346.3c-.28-.75-.55-1.49-.81-2.23Zm42.53-13.72-35.4-3.6-5.67-.58-.34,0-40-4.07c-.17.92-.34,1.8-.49,2.68l33.33,3.4,3.29.33,10.9,1.11,35.21,3.59h0C586,331.63,585.76,330.7,585.46,329.73Zm-2.43-7.9c0-.13-.08-.26-.13-.4-.1-.34-.21-.69-.32-1h0L561,318.2l-5.84-.59-1.41-.14-.37,0-47.7-4.85c-.09.47-.17.93-.26,1.39s-.17.88-.25,1.31l46,4.67.38,0,1,.1,3.59.36,27.37,2.79h0C583.34,322.78,583.19,322.3,583,321.83Zm-3.58-10.77h0l-2.62-.27-3.27-.33-1.12-.11-1.2-.13-.59-.06-.28,0-62.86-6.4c-.07.32-.13.63-.2.94l-.09.4c-.09.44-.18.89-.28,1.34h0l57.72,5.88,1.67.17,1.65.16,2.69.28,9.74,1h0C580.12,313,579.79,312,579.45,311.06Zm-3.39-9.37h0l-10.25-1-.78-.08-1.56-.16-.38,0-53.71-5.46h0c-.06.3-.13.6-.19.9,0,.15-.07.29-.1.44-.1.45-.2.89-.29,1.34h0l56.35,5.73.48.05,1.44.15.84.08,9.21.94h0C576.77,303.6,576.43,302.65,576.06,301.69Zm-3.74-9.41h0L559,290.93l-.86-.09-1.48-.15-.17,0-41.73-4.23-.63-.06-2.75-.28c0,.17-.08.33-.11.5-.17.71-.34,1.43-.5,2.16l1.46.15.54,0,45.7,4.65.2,0,1.56.16.81.08,12.45,1.27h0C573.11,294.18,572.72,293.24,572.32,292.28Zm-22.06-8.51,1.73.17.24,0c-.62-1-1.24-2-1.84-2.94l-.31,0L521,278.05h0c-.61.85-1.22,1.7-1.85,2.55l30.5,3.11Zm18.66.78q-.37-.85-.78-1.71h0l-15.58-1.59-1.56-.16-.59-.06-.31,0L521,278.05h0l-.9-.1-6.53-.66c-.06.2-.11.4-.17.61-.19.68-.37,1.37-.54,2.06h0l5.45.56.83.08,30.5,3.11.59.06,1.73.17.24,0,1,.09,1.25.13,15,1.53h0Q569.2,285.14,568.92,284.55Zm-5.6-11.22-16.75-1.71-1.71-.17-18.11-1.85-1-.1-3.89-.39-5.84-.6c-.26.88-.53,1.75-.8,2.67h0l4,.41,4.79.49,1,.1,21.38,2.17,1.88.19,16.52,1.68h0C564.36,275.24,563.84,274.27,563.32,273.33Zm-4.45-7.54c-.45-.71-.9-1.4-1.37-2.09h0l-16-1.62-1.06-.11-8.77-.89L531,261l-.65-.07L519,259.78h0c-.33.84-.64,1.73-1,2.66l9.8,1,1.68.17.83.09h0l11.33,1.15,1.17.12,16.59,1.68h0C559.24,266.35,559.06,266.07,558.87,265.79ZM550,254.2l-.32-.33h0l-7.91-.81-2-.19-.78-.08-4.67-.48-1.25-.13-9.75-1h0l-.39.47-.06.08c-.09.11-.17.23-.26.35a3.15,3.15,0,0,0-.22.33,5.82,5.82,0,0,0-.44.7c-.12.21-.23.42-.35.65h0l.73.07L533.63,255l.44,0,2.42.25,2.31.23,1.57.16,12,1.22h0C551.59,255.94,550.77,255,550,254.2Z" style="opacity:0.1"></path><path d="M551.84,253.74c23.89,11.93,68.56,49.27,67.5,60.87-2,21.39-54.2,45.29-64,51-4.19,2.41-19.11-35.53-14.68-38.21,3.86-2.33,32-12.83,31.9-16.7,0-1.59-15.2-20.25-28.12-42.76C534.49,250.66,544.76,250.21,551.84,253.74Z" style="fill:#eb9481"></path><path d="M549.11,323.51s-4.16,2.32-15.52,4.77c-8.88,1.92-28.4,12.61-33.09,37.69-1.79,9.61,4.17,15.07,7.81,5.41,2.56-6.8,3.75-11.73,5.21-13.71,0,0,3.41,10.59,9.56,12.52a118,118,0,0,0,16.42,3.93,27.26,27.26,0,0,0,1-3,13.53,13.53,0,0,0,13.58-4.88l8.77-4.67Z" style="fill:#eb9481"></path><path d="M526.5,332.33c-2.94,3.74-9,11.78-11.72,20.09-3,9.24-6.27,27.83.57,30,5,1.57,6.89-5.42,6.89-5.42s.27,8,5.1,8.4c4.41.38,5.54-5.11,5.54-5.11s1,4.81,5.31,4.36c5.2-.53,2.26-10.52,7.06-15.6C546.32,367.86,526.5,332.33,526.5,332.33Z" style="fill:#eb9481"></path><path d="M525.06,354c-2.18,4-4.83,14.27-3,22.86,0,.19.21.26.21.08A94.62,94.62,0,0,1,525.15,354,0,0,0,0,0,525.06,354Z" style="fill:#263238"></path><path d="M534.29,357.25c-1.53,3.62-3.78,14.36-1.59,23,0,.19.22.26.22.07a102,102,0,0,1,1.46-23S534.31,357.2,534.29,357.25Z" style="fill:#263238"></path><path d="M549.11,323.51l13.75,38.05s9.5,4.33,16.06-.09S622.4,326.42,619.81,313,575,265.31,556.68,255.29s-22.49-5.06-13,13.77,27.64,41.52,27.61,42-10.56,2.44-14.39,4.15S549.11,323.51,549.11,323.51Z" style="fill:#F36DA8"></path><path d="M548.64,282c1.34,1.5,2.78,2.93,4.24,4.33.66.64,1.33,1.27,2,1.92-2.48-3.71-4.93-7.43-7.27-11.21-.08-.12.12-.24.2-.13,4.33,5.55,8.51,11.24,12.54,17s8.24,11.24,11.49,17.36c.1.18-.16.33-.28.18-4.7-5.24-8.5-11.27-12.51-17-1-1.41-1.92-2.84-2.88-4.27-.54-.4-1.07-.81-1.59-1.25a28.12,28.12,0,0,1-2.16-2.07,61.07,61.07,0,0,1-3.94-4.69C548.37,282.06,548.54,281.92,548.64,282Z" style="fill:#263238"></path><path d="M548.9,323.35a24.5,24.5,0,0,1,6.37-7.51c2.73-2,6.1-2.73,9.34-3.53q5.43-1.33,10.95-2.18a2.72,2.72,0,0,1,.82-.4c.35-.15.72-.27,1.09-.39a26.43,26.43,0,0,1,4.38-1.08.07.07,0,0,1,0,.13c-1.06.25-2.1.55-3.15.87-.54.16-1.08.33-1.62.52l-.66.24c3.24-.47,6.51-.81,9.78-1,.14,0,.18.19,0,.21-6.86,1-13.67,2.23-20.4,3.89-3.34.82-7,1.46-9.75,3.7a85.21,85.21,0,0,0-7,6.7C549,323.67,548.83,323.48,548.9,323.35Z" style="fill:#263238"></path><path d="M541.07,251.5c-.8,1.47-11.1,9.61-18.18,7.3-2.31-.75,1.25-13.53,1.25-13.53l.05-1,.67-14.05,20.89-6.4S541.4,250.88,541.07,251.5Z" style="fill:#eb9481"></path><path d="M524.86,230.23l-.67,14-.05,1s-.64,2.31-1.2,5c10.18,1.23,16.68-4.89,20-9.42,1.3-7.81,2.78-17.06,2.78-17.06Z" style="fill:#263238"></path><path d="M507.48,203.09c-12,27.63,3.21,37.93,9.17,40.51,5.42,2.34,24.14,9.62,38.92-16.62s5.72-40.56-6.37-46.57S519.47,175.45,507.48,203.09Z" style="fill:#eb9481"></path><path d="M513.39,208.93c-3-1.19-5.13,4.81-2.39,5.92S515.87,209.93,513.39,208.93Z" style="fill:#263238"></path><path d="M512.06,204a17.86,17.86,0,0,0,2.06.27,3.39,3.39,0,0,0,2.16-.12,1.07,1.07,0,0,0,.43-1.24,2.64,2.64,0,0,0-2.26-1.45,3.88,3.88,0,0,0-2.77.48A1.14,1.14,0,0,0,512.06,204Z" style="fill:#263238"></path><path d="M531,211.72c-.64-.32-1.17-.71-1.77-1.08s-1.26-.69-1.61-1.45a1.09,1.09,0,0,1,.44-1.24,2.66,2.66,0,0,1,2.68.29,3.93,3.93,0,0,1,1.85,2.12A1.14,1.14,0,0,1,531,211.72Z" style="fill:#263238"></path><path d="M520.3,231.19a3.06,3.06,0,0,1-2,.68,5.24,5.24,0,0,1-2-1.1c-.05,0-.14,0-.11.08a2.75,2.75,0,0,0,2.19,1.78,2.17,2.17,0,0,0,2.05-1.3C520.53,231.23,520.39,231.14,520.3,231.19Z" style="fill:#263238"></path><path d="M513.85,225.14a8.44,8.44,0,0,0,1.9,3.81,3.8,3.8,0,0,0,2,1.13c1.69.33,2.39-1,2.68-2.34a8.72,8.72,0,0,0,.2-2.12A10.9,10.9,0,0,1,513.85,225.14Z" style="fill:#fff"></path><path d="M514.54,227.18c.06.12.12.26.2.39a6.68,6.68,0,0,0,1.61.26C515.73,227.62,515.13,227.41,514.54,227.18Z" style="fill:#dbdbdb"></path><path d="M518.06,228a5.31,5.31,0,0,0,1.26.08,5.72,5.72,0,0,0,1.07-.19l0-.14c0-.08,0-.15.05-.22A18.83,18.83,0,0,1,518.06,228Z" style="fill:#dbdbdb"></path><path d="M514.64,221.37s-1.4,2.75-1.88,4.11c0,.13.26.31.72.5l0,0a6.87,6.87,0,0,0,7.14-.23c.15-.1,0-.3-.13-.26a10.39,10.39,0,0,1-6.52-.37c0-.41,2.59-4.69,2.36-4.72-1-.17-2.7-.32-3.34-.38.87-1.81,3.61-6.83,5.2-10.12.09-.21-.21-.39-.33-.22a97.19,97.19,0,0,0-6.68,11C511.08,221,514,221.41,514.64,221.37Z" style="fill:#263238"></path><path d="M527.45,213.62c3.07.87,1.09,6.94-1.75,6.13S524.88,212.88,527.45,213.62Z" style="fill:#263238"></path><path d="M552.78,228.12c-7.44-2.59-4.23-16.63-4.23-16.63S536.47,205,537.93,194.7c0,0-14.83,3.57-23.19-3.19s-2.63-16.88-.77-18.83,5.67,4.18,5.67,4.18,2.71-5.91,4.56-6,2.35,4.25,2.35,4.25,13.74.12,24.8,4.28,12.71,17.34,12.71,17.34,5.54,3.33,6,8.18S557.53,229.78,552.78,228.12Z" style="fill:#263238"></path><path d="M551.54,212.62c-10.36-2.1-14.66-10.94-12.83-20.93a.1.1,0,0,0-.19,0c-2.76,8.93,2.1,21.63,13,21.44A.24.24,0,0,0,551.54,212.62Z" style="fill:#263238"></path><path d="M563.86,196.49a.11.11,0,0,0-.14.17c2.33,2.24,5.17,4.3,6.25,7.5,1.31,3.86-.58,7.69-2.66,10.86-3.21,4.9-8.38,10.93-14.28,12.43-.34.09-.19.59.15.52,6.93-1.41,13.41-9.32,16.38-15.37C572.9,205.82,569.88,200.27,563.86,196.49Z" style="fill:#263238"></path><path d="M526.13,193.72c-5.27,1.13-11.78-1-15-5.45-4-5.44-.77-11.06,3.21-15.29.19-.21-.07-.59-.32-.41-4.61,3.34-7.16,9.94-4.2,15.19,3.05,5.43,10.74,7.94,16.55,6.7C526.82,194.36,526.61,193.62,526.13,193.72Z" style="fill:#263238"></path><path d="M549.21,227.25s9.22-6.84,12.52-3.26-5.7,14.94-11.05,15.11a5.09,5.09,0,0,1-5.6-4.76Z" style="fill:#eb9481"></path><path d="M559.07,227.18c.08,0,.06.13,0,.14-3.78.23-6.57,2.73-8.86,5.53,1.4-.9,3-1.13,4.23.6.07.09-.06.2-.15.15a3.14,3.14,0,0,0-3.62-.06,15.93,15.93,0,0,0-2.45,2.12c-.25.25-.74-.09-.51-.39l0-.07C549.08,230.92,554.37,226.09,559.07,227.18Z" style="fill:#263238"></path></g><g id="freepik--character-1--inject-29"><path d="M262.7,182.6c20.89,22.18,24.09,59-1.37,90.3-23.16,28.43-66.25,35-86.22,20.56-21.19-15.36-20.87-43.55-5.64-56.11,14.72-12.12,33.07-11.71,41.66-24.18,4.11-6,5.08-18.2,10.77-27.28C228.25,175.75,249.27,168.35,262.7,182.6Z" style="fill:#263238"></path><path d="M198.35,302.67c12.39,1.18,25-1.34,36.45-6.38a81.67,81.67,0,0,0,29.43-22.8c7.94-9.65,13.74-21.28,15.63-33.7a69.68,69.68,0,0,0-4.42-36.71,73,73,0,0,1,3.29,36.52,68.08,68.08,0,0,1-5.65,17.5,74.39,74.39,0,0,1-10,15.44A89.66,89.66,0,0,1,250,285.49a79.84,79.84,0,0,1-33.16,15.56A71,71,0,0,1,198.35,302.67Z" style="fill:#263238"></path><path d="M164.78,239.81a36.62,36.62,0,0,1,8.54-7.61,48,48,0,0,1,10.21-5.1c3.63-1.3,7.22-2.69,10.78-4.22a50.07,50.07,0,0,0,10.2-5.7,32.64,32.64,0,0,0,4.43-3.92,22.19,22.19,0,0,0,3.27-5,96.88,96.88,0,0,0,4.15-10.84,45.34,45.34,0,0,1,4.93-10.29,31.61,31.61,0,0,1,8-8.19,30.35,30.35,0,0,0-8.55,7.78,45,45,0,0,0-5.4,10.3c-1.45,3.58-2.59,7.27-4.31,10.63a21.19,21.19,0,0,1-3.12,4.62,30.83,30.83,0,0,1-4.26,3.66c-6.05,4.57-13.4,7.12-20.5,10a48.88,48.88,0,0,0-10.21,5.58A34.26,34.26,0,0,0,164.78,239.81Z" style="fill:#263238"></path><path d="M269.45,432.2H207.38c-.26-1.1-.52-2.22-.79-3.34-.14-.62-.29-1.23-.44-1.85,0-.16-.07-.31-.11-.46-.34-1.44-.69-2.89-1-4.34-.24-1-.48-1.93-.71-2.91l-.72-2.92c-.24-1-.48-2-.73-2.94s-.49-2-.73-2.94c-1.27-5.07-2.55-10.14-3.84-15.13-.82-3.21-1.65-6.38-2.46-9.49v0c-.2-.78-.4-1.55-.61-2.32-.4-1.54-.8-3.07-1.2-4.58-1-3.61-1.88-7.1-2.77-10.44-.4-1.48-.79-2.92-1.16-4.33h0c-.17-.65-.35-1.3-.52-1.94h0a.31.31,0,0,1,0-.08c0-.14-.07-.27-.11-.4v0c0-.22-.11-.43-.17-.64-.4-1.47-.79-2.9-1.16-4.28-.31-1.15-.62-2.26-.91-3.34-.23-.85-.45-1.67-.67-2.46-.62-2.28-1.19-4.38-1.7-6.24a.17.17,0,0,0,0-.1h0a0,0,0,0,0,0,0c-.27-1-.52-1.89-.75-2.73-.12-.44-.24-.85-.34-1.25a.76.76,0,0,0-.06-.2c-.59-2.14-1-3.74-1.3-4.7l-.06-.22c-.09-.3-.15-.52-.19-.66s0,0,0,0,0,0,0,0,0-.05,0-.07a0,0,0,0,0,0,0,0,0,0,0,1,0,0H252l.32,1.78h0c.22,1.2.55,3,1,5.23C256.17,357.91,263.61,399,269.45,432.2Z" style="fill:#263238"></path><path d="M246.48,334.71l0,.12,0,.07-3,10.23-.27.92-4,13.46-.2.67-3.26,11-1.18,4L217.57,432.2H207.38c-.26-1.1-.52-2.22-.79-3.34-.15-.62-.29-1.24-.44-1.85,0-.16-.07-.31-.11-.46-.34-1.44-.69-2.88-1-4.34-.24-1-.48-1.93-.71-2.91l-.72-2.92c-.24-1-.48-2-.73-2.94s-.49-2-.73-2.94c-1.27-5.07-2.55-10.14-3.84-15.13-.82-3.21-1.64-6.38-2.46-9.49v0c-.2-.78-.4-1.55-.61-2.32-.4-1.54-.8-3.07-1.2-4.58-.95-3.61-1.88-7.1-2.77-10.44-.39-1.48-.78-2.92-1.16-4.33h0c-.17-.65-.35-1.3-.52-1.94,0,0,0-.06,0-.09l-.12-.42c0-.22-.11-.43-.17-.64-.39-1.48-.78-2.9-1.16-4.28l-.9-3.36c-.23-.84-.45-1.65-.67-2.44-.62-2.29-1.19-4.38-1.71-6.24a.17.17,0,0,0,0-.1h0a0,0,0,0,0,0,0c-.26-1-.51-1.9-.75-2.75l-.34-1.23a.76.76,0,0,0-.06-.2c-.58-2.14-1-3.74-1.3-4.7l-.06-.22c-.08-.3-.14-.53-.19-.66s0,0,0,0,0,0,0,0a.14.14,0,0,0,0-.07,0,0,0,0,0,0,0v0Z" style="fill:#37474f"></path><path d="M252,334.83c0,.29-.09.6-.14.94a87.48,87.48,0,0,1-2.46,9.82q-.37,1.28-.81,2.61c-1.24,3.85-2.74,8-4.39,11.82l-.47,1.07a66.32,66.32,0,0,1-4.48,8.67,17.51,17.51,0,0,1-4.71,5.39l-12,4.93s-4.11,25-8.7,52.12H150c4.07-21.74,7.81-41.69,7.81-41.69-3-12.62-1.81-25.08.37-35,.26-1.2.54-2.35.82-3.47.08-.29.16-.59.23-.87.37-1.38.74-2.69,1.13-3.92.3-1,.61-1.94.91-2.83a79.69,79.69,0,0,1,3.86-9.58Z" style="fill:#263238"></path><path d="M230.27,258.94c10.47,10.76,50.78,46.94,70.13,42.57,23.45-5.3,50.52-17,62.25-29.28,5.71-6-28.16-38.11-33.45-32.81-11.5,11.54-27.15,18.07-31.14,19.76S257,249.5,237,243C219.05,237.16,220.26,248.65,230.27,258.94Z" style="fill:#d3766a"></path><path d="M357.12,277.15c3.91-2.39,21.38-17.83,25.31-22.38s14.31-18.45,11.13-21.81-6.54.46-6.54.46,3.88-7.13,0-9.66c-3.14-2-8.16,3.12-8.16,3.12s3.84-8-.38-10c-3.85-1.83-7.86,5.07-7.86,5.07s2.54-7.05-1.51-8.1c-4.87-1.26-9.25,10.94-14,15.63-1.08,1.06-23.26,20-23.26,20Z" style="fill:#d3766a"></path><path d="M319.88,246.24l32.46,34.31c9.35-4.1,26.15-21.24,30.08-25.77s14.31-18.45,11.15-21.81c-3-3.21-6.21.08-6.52.41.3-.56,3.69-7.19-.08-9.62-3.14-2-8.15,3.12-8.15,3.12s3.84-8-.38-10c-3.85-1.84-7.86,5.07-7.86,5.07s2.53-7.05-1.53-8.11c-4.85-1.25-9.25,11-14,15.64-.42.41-4,3.53-8.26,7.18,4.92-7.57,7.15-18.49,2.51-18.67s-12.77,12.8-16.22,16.92S319.88,246.24,319.88,246.24Z" style="fill:#d3766a"></path><path d="M370.39,221.55c-4.22,8.8-6.22,12.32-13.64,18.08-.14.11,0,.35.16.25,7.77-5,10.44-9,13.92-18.2C371,221.24,370.58,221.14,370.39,221.55Z" style="fill:#263238"></path><path d="M378.72,226.87c-4.19,9-7.48,12.47-14.8,19.07-.1.1,0,.28.16.2,7.72-5.88,12-9.64,15-19.2C379.18,226.51,378.91,226.46,378.72,226.87Z" style="fill:#263238"></path><path d="M386.66,233.75c-4.68,8.43-8,12.61-15.94,18.11a.17.17,0,0,0,.18.3c8.64-4.82,12.82-10,16-18.24C387.12,233.36,387,233.22,386.66,233.75Z" style="fill:#263238"></path><path d="M344.67,240.06c3.57,5,6.17,12.64,3.85,18.29a.14.14,0,0,0,.25.13c3.31-5.73.39-14.62-3.07-18.88C345,238.78,343.75,238.77,344.67,240.06Z" style="fill:#263238"></path><path d="M322.86,244.59,352.73,282s-37.36,22.1-55.54,21.52-50.25-25.06-66.63-40.17-16.35-32.48,16.62-20.63,48.21,15.54,50.15,15.29S322.86,244.59,322.86,244.59Z" style="fill:#F36DA8"></path><path d="M230.56,263.37c6.93,6.38,40.82,38.66,66.64,40.17,11.21.65,33.59-3.3,46.28-9.88,6.86-3.56,9.24-11.64,9.24-11.64l-29.86-37.43s-6.58-.51-11.39,2.13c-6.93,3.79-13,11.16-14.14,11.31-1.95.25-17.17-3.45-50.13-15.29S214.19,248.26,230.56,263.37Z" style="fill:#455a64"></path><path d="M343.6,285.15a109.36,109.36,0,0,0-6.58-8.87q-3.33-4.29-6.7-8.53c-4.54-5.71-9-11.57-13.87-17-.12-.12-.32,0-.22.16,4,6.18,8.64,12,13.18,17.75q3.4,4.35,6.94,8.61a96.45,96.45,0,0,0,7,8C343.52,285.46,343.68,285.27,343.6,285.15Z" style="fill:#263238"></path><path d="M272.9,285.86h0a1.55,1.55,0,0,0-.34-.53,1.58,1.58,0,0,0-.51-.38h0a1.52,1.52,0,0,0-.63-.17,1.69,1.69,0,0,0-.83.16l-.21.11a1.74,1.74,0,0,0-.8,1.36,1.81,1.81,0,0,0,.71,1.5,1.2,1.2,0,0,0,.21.13,1.67,1.67,0,0,0,.71.2,1.6,1.6,0,0,0,.44,0,1.86,1.86,0,0,0,.31-.1.92.92,0,0,0,.28-.14,1.69,1.69,0,0,0,.25-.2,1.75,1.75,0,0,0,.49-.82l0-.19a.4.4,0,0,0,0-.15A1.55,1.55,0,0,0,272.9,285.86ZM292,287.39a.14.14,0,0,0,0-.06,1.58,1.58,0,0,0-.09-.31,1.51,1.51,0,0,0-.15-.28,2.48,2.48,0,0,0-.19-.26l-.24-.21a2.22,2.22,0,0,0-.43-.23l-.24-.07a1,1,0,0,0-.24,0,1.35,1.35,0,0,0-.45,0,1.12,1.12,0,0,0-.31.1,1.7,1.7,0,0,0-1.08,1.49,1.6,1.6,0,0,0,0,.44,2,2,0,0,0,.29.67,1.19,1.19,0,0,0,.15.18,2.12,2.12,0,0,0,.51.38,1.52,1.52,0,0,0,.64.17,1.59,1.59,0,0,0,.38,0l.12,0a1,1,0,0,0,.25-.08.51.51,0,0,0,.18-.09.6.6,0,0,0,.11-.06l.07,0,.18-.15.06-.06a1.68,1.68,0,0,0,.5-1.1A1.63,1.63,0,0,0,292,287.39Zm17.36-.29a1.73,1.73,0,1,0,1.62,1.83A1.73,1.73,0,0,0,309.33,287.1Zm19,1.16a1.73,1.73,0,1,0,1.63,1.83A1.74,1.74,0,0,0,328.29,288.26Zm19,1.17a1.72,1.72,0,0,0-1.83,1.62,1.62,1.62,0,0,0,.35,1.14,17.47,17.47,0,0,0,2.49-2.35A1.64,1.64,0,0,0,347.26,289.43Zm-66.88,9.46-.31-.05h-.3c.51.22,1,.44,1.52.64h0A1.65,1.65,0,0,0,280.38,298.89Zm20,2a1.15,1.15,0,0,0-.25-.33,1.44,1.44,0,0,0-.49-.34l-.08,0-.24-.09h0l-.16,0-.16,0a1.38,1.38,0,0,0-.45,0,1.64,1.64,0,0,0-.61.25.45.45,0,0,0-.13.11.75.75,0,0,0-.19.17.32.32,0,0,0-.08.09l-.06.1a1.94,1.94,0,0,0-.22.4,1.79,1.79,0,0,0-.09.46,2,2,0,0,0,0,.43.9.9,0,0,0,.08.28,2.1,2.1,0,0,0,.13.26c.05.08.1.16.16.24a1.89,1.89,0,0,0,.2.2l.24.18.24.12a.05.05,0,0,0,0,0l.26.07a.25.25,0,0,0,.12,0h.13a1.51,1.51,0,0,0,.43,0h0l.25-.08.07,0a1.57,1.57,0,0,0,.31-.18,1.71,1.71,0,0,0,.75-1.31A1.67,1.67,0,0,0,300.41,300.86Zm17.57.3a1.76,1.76,0,0,0-1.53.77c.81-.13,1.62-.28,2.44-.44A1.67,1.67,0,0,0,318,301.16ZM292,258.7a1.74,1.74,0,1,0,1.63,1.84A1.75,1.75,0,0,0,292,258.7Zm19,1.17a1.73,1.73,0,1,0,1.62,1.83A1.73,1.73,0,0,0,311,259.87ZM330,261a1.74,1.74,0,1,0,1.62,1.84A1.75,1.75,0,0,0,330,261Zm-47.09,11.13a1.74,1.74,0,0,0-.37-.3,1.46,1.46,0,0,0-.46-.2l-.33-.05a1.76,1.76,0,0,0-1.66,1,1.64,1.64,0,0,0,0,1.38,2.59,2.59,0,0,0,.14.29.79.79,0,0,0,.2.25,1.77,1.77,0,0,0,1.17.55,1.6,1.6,0,0,0,.44,0,1.75,1.75,0,0,0,1.21-.94h0a1.68,1.68,0,0,0,.17-.64A1.63,1.63,0,0,0,282.88,272.16Zm17.81.61a1.73,1.73,0,1,0,1.63,1.83A1.73,1.73,0,0,0,300.69,272.77Zm19,1.17a1.73,1.73,0,1,0,1.62,1.83A1.74,1.74,0,0,0,319.66,273.94Zm19,1.16a1.73,1.73,0,1,0,1.62,1.83A1.73,1.73,0,0,0,338.62,275.1Zm-17.29-28.39a1.73,1.73,0,1,0,1.62,1.83A1.74,1.74,0,0,0,321.33,246.71Z" style="fill:#37474f"></path><path d="M272.9,285.86h0a1.93,1.93,0,0,0-.34-.53,2.12,2.12,0,0,0-.51-.38h0a1.68,1.68,0,0,0-.64-.16,1.74,1.74,0,0,0-.82.15l-.21.11a1.74,1.74,0,0,0-.8,1.36,1.81,1.81,0,0,0,.71,1.5,1.2,1.2,0,0,0,.21.13,1.43,1.43,0,0,0,.7.21,1.35,1.35,0,0,0,.45,0,1.86,1.86,0,0,0,.31-.1.92.92,0,0,0,.28-.14,1.69,1.69,0,0,0,.25-.2,1.75,1.75,0,0,0,.49-.82l0-.19a.68.68,0,0,0,0-.14A1.69,1.69,0,0,0,272.9,285.86ZM292,287.33a1.58,1.58,0,0,0-.09-.31,1.51,1.51,0,0,0-.15-.28,2.48,2.48,0,0,0-.19-.26l-.24-.21a2.22,2.22,0,0,0-.43-.23l-.24-.07-.25,0a1.6,1.6,0,0,0-.44,0,1.12,1.12,0,0,0-.31.1,1.7,1.7,0,0,0-1.08,1.49,1.73,1.73,0,0,0,.32,1.11,1.19,1.19,0,0,0,.15.18,1.48,1.48,0,0,0,.51.38,1.52,1.52,0,0,0,.64.17,1.59,1.59,0,0,0,.38,0l.12,0a1,1,0,0,0,.25-.08.51.51,0,0,0,.18-.09.6.6,0,0,0,.11-.06l.07,0,.18-.15.06-.06a1.77,1.77,0,0,0,.48-1.1A1.6,1.6,0,0,0,292,287.33Zm-11.57,11.56-.31-.05h-.3c.51.22,1,.44,1.52.64A1.7,1.7,0,0,0,280.38,298.89Zm19.41,2.81c0-.5-.07-1-.12-1.51l-.08,0-.24-.09h0l-.16,0H299a1.6,1.6,0,0,0-.44,0,1.64,1.64,0,0,0-.61.25.45.45,0,0,0-.13.11.75.75,0,0,0-.19.17.32.32,0,0,0-.08.09,1.31,1.31,0,0,0-.28.5,1.29,1.29,0,0,0-.11.47,1.43,1.43,0,0,0,0,.42.9.9,0,0,0,.08.28,2.1,2.1,0,0,0,.13.26c.05.08.1.16.16.24a1.89,1.89,0,0,0,.2.2l.24.18.24.12a.05.05,0,0,0,0,0l.26.07a.25.25,0,0,0,.12,0l.11,0a1.38,1.38,0,0,0,.45,0h0l.25-.08.07,0a1.82,1.82,0,0,0,.31-.16v0C299.86,302.67,299.83,302.18,299.79,301.7Zm-64.65-46.48a1.73,1.73,0,1,0,1.63,1.83A1.73,1.73,0,0,0,235.14,255.22Zm19,1.16a1.74,1.74,0,1,0,1.62,1.84A1.75,1.75,0,0,0,254.11,256.38Zm19,1.17a1.73,1.73,0,1,0,1.62,1.83A1.73,1.73,0,0,0,273.07,257.55ZM243.8,269.29a1.73,1.73,0,1,0,1.63,1.83A1.74,1.74,0,0,0,243.8,269.29Zm19,1.16a1.73,1.73,0,1,0,1.62,1.83A1.73,1.73,0,0,0,262.76,270.45Zm20.12,1.71a1.74,1.74,0,0,0-.37-.3,1.46,1.46,0,0,0-.46-.2l-.33-.05a1.76,1.76,0,0,0-1.66,1,1.64,1.64,0,0,0,0,1.38,2.59,2.59,0,0,0,.14.29.79.79,0,0,0,.2.25,1.67,1.67,0,0,0,1.15.56,1.39,1.39,0,0,0,.46,0,1.75,1.75,0,0,0,1.21-.94h0a1.88,1.88,0,0,0,.15-.63A1.76,1.76,0,0,0,282.88,272.16ZM246.51,242.5l-1.23-.43a1.72,1.72,0,1,0,1.82,1.82A1.7,1.7,0,0,0,246.51,242.5Z" style="fill:#37474f"></path><path d="M226.55,240.91a1.73,1.73,0,1,0,1.62,1.83A1.73,1.73,0,0,0,226.55,240.91Z" style="fill:#37474f"></path><path d="M220.72,250.09c1.55,4.06,4.95,8.77,9.83,13.27,6.93,6.39,40.83,38.67,66.64,40.18a84.47,84.47,0,0,0,16.19-1.09Z" style="fill:#263238"></path><path d="M163,336.65c.06.1,90,6.09,90.72,5.57.34-.26,7.09-5.77,6.7-13.34-1.08-21-12.05-62.1-21.28-82.79-2.35-5.27-14.69-14.07-25.34-5.84-22.46,17.37-43.71,57.63-51.19,80.34C159.35,330.35,162.64,336.1,163,336.65Z" style="fill:#455a64"></path><path d="M173.27,333.42a1.73,1.73,0,1,0,1.62,1.84A1.74,1.74,0,0,0,173.27,333.42Zm18.95,1.16a1.73,1.73,0,1,0,1.63,1.84A1.73,1.73,0,0,0,192.22,334.58Zm19,1.16a1.74,1.74,0,0,0-.21,3.47,1.74,1.74,0,0,0,.21-3.47Zm19,1.17a1.73,1.73,0,1,0,1.62,1.84A1.73,1.73,0,0,0,230.15,336.91Zm19,1.16a1.73,1.73,0,0,0-1.66,1,1.84,1.84,0,0,0-.17.65,1.82,1.82,0,0,0,0,.33,1.74,1.74,0,0,0,1.61,1.51,1.7,1.7,0,0,0,1.29-.48,1.53,1.53,0,0,0,.39-.55,1.56,1.56,0,0,0,.15-.6A1.73,1.73,0,0,0,249.11,338.07Zm-74.17-31.88a1.73,1.73,0,1,0,1.62,1.83A1.74,1.74,0,0,0,174.94,306.19Zm20.56,2.62a1.67,1.67,0,0,0-.45-.91,1.7,1.7,0,0,0-1.16-.55,1.73,1.73,0,0,0-.21,3.46h0a1.6,1.6,0,0,0,1-.27,1.7,1.7,0,0,0,.8-1.36A1.14,1.14,0,0,0,195.5,308.81Zm17.36-.3a1.74,1.74,0,0,0-.22,3.47,1.74,1.74,0,0,0,.22-3.47Zm19,1.17a1.73,1.73,0,1,0,1.62,1.83A1.73,1.73,0,0,0,231.82,309.68Zm19,1.16a1.74,1.74,0,1,0,1.63,1.84A1.74,1.74,0,0,0,250.78,310.84Zm-84.57,9.68a.24.24,0,0,0,0-.16,1.7,1.7,0,0,0-1.54-1.27,1.73,1.73,0,0,0-1.84,1.62,1.57,1.57,0,0,0,.07.57.44.44,0,0,0,0,.1,1.71,1.71,0,0,0,1.53,1.16h0a1.64,1.64,0,0,0,.79-.14,1.72,1.72,0,0,0,1-1.48A1.33,1.33,0,0,0,166.21,320.52Zm18.73.55a1.71,1.71,0,0,0-2.91,0,1.58,1.58,0,0,0-.28.82,1.73,1.73,0,0,0,3.46.22A1.64,1.64,0,0,0,184.94,321.07Zm19,1.2a1.31,1.31,0,0,0-.25-.32,1.45,1.45,0,0,0-.68-.42,1.24,1.24,0,0,0-.46-.11,1.67,1.67,0,0,0-1.38.56.43.43,0,0,0-.14.2,1.53,1.53,0,0,0-.32.86,1.74,1.74,0,0,0,1.38,1.8l.24,0a1.72,1.72,0,0,0,1.61-2.6Zm17.57.31a1.73,1.73,0,1,0,1.62,1.83A1.73,1.73,0,0,0,221.51,322.58Zm19,1.17a1.73,1.73,0,1,0,1.63,1.83A1.74,1.74,0,0,0,240.47,323.75Zm19.75,2.85c0-.49-.08-1-.13-1.51a1.51,1.51,0,0,0-.66-.18,1.73,1.73,0,1,0,.89,3.15C260.29,327.59,260.26,327.09,260.22,326.6Zm-64.66-46.48a1.74,1.74,0,1,0,1.63,1.84A1.73,1.73,0,0,0,195.56,280.12Zm19,1.17a1.73,1.73,0,1,0,1.62,1.83A1.72,1.72,0,0,0,214.53,281.29Zm19,1.16a1.73,1.73,0,1,0,1.62,1.83A1.73,1.73,0,0,0,233.49,282.45Zm18.33,1.26a1.73,1.73,0,0,0,.42,3.37,1.19,1.19,0,0,0,.46-.05C252.41,285.93,252.12,284.81,251.82,283.71ZM185.26,293a1.75,1.75,0,0,0-1.84,1.62,1.73,1.73,0,1,0,1.84-1.62Zm19,1.17a1.73,1.73,0,1,0,1.63,1.83A1.74,1.74,0,0,0,204.22,294.19Zm19,1.16a1.73,1.73,0,1,0,1.62,1.84A1.74,1.74,0,0,0,223.18,295.35Zm19,1.17a1.73,1.73,0,1,0,1.62,1.83A1.74,1.74,0,0,0,242.15,296.52Zm-43.84-40.81c-.09.14-.2.27-.3.41a1.31,1.31,0,0,0,.24-.17,1.34,1.34,0,0,0,.2-.21s0,0,0,0a1.94,1.94,0,0,0,.29-.53Zm17.89-1.65h-.08c-.11,0-.22,0-.33,0a1.63,1.63,0,0,0-.57.21,1.19,1.19,0,0,0-.23.16,1.72,1.72,0,0,0-.56.88,1,1,0,0,0-.06.34.85.85,0,0,0,0,.32.7.7,0,0,0,.05.25.13.13,0,0,0,0,.06.64.64,0,0,0,.08.19.18.18,0,0,0,.05.11.72.72,0,0,0,.13.19s0,0,0,0a.65.65,0,0,0,.13.16.5.5,0,0,0,.15.14l.06,0a.27.27,0,0,0,.16.1.4.4,0,0,0,.17.09.85.85,0,0,0,.28.1,1.07,1.07,0,0,0,.31.06,1.73,1.73,0,0,0,.21-3.46Zm19,1.16a1.74,1.74,0,0,0-1.83,1.62.57.57,0,0,0,0,.13.52.52,0,0,0,0,.25,1.72,1.72,0,0,0,1.59,1.46,1.47,1.47,0,0,0,.75-.13,1.69,1.69,0,0,0,1.08-1.48v0A1.73,1.73,0,0,0,235.16,255.22ZM205.89,267a1.73,1.73,0,1,0,1.63,1.83A1.73,1.73,0,0,0,205.89,267Zm19,1.16a1.73,1.73,0,0,0-.21,3.46,1.73,1.73,0,0,0,.21-3.46Zm19,1.17a1.72,1.72,0,0,0-1.59.85,1.67,1.67,0,0,0-.25.77,1.74,1.74,0,0,0,2.82,1.45,1.73,1.73,0,0,0-1-3.07Zm-16.09-27.8a1.71,1.71,0,0,0-1.2-.59,1.74,1.74,0,0,0-1.84,1.6v0a1.73,1.73,0,0,0,3.46.21A1.8,1.8,0,0,0,227.73,241.49Z" style="fill:#37474f"></path><path d="M214,264.26c-3.81,11.35-26.19,64.86-36.49,79.87-11.42,16.63-32.6,7.87-32.13-8.27.75-25.34,34.7-65.74,57.68-87.74C218.18,233.64,217.9,252.59,214,264.26Z" style="fill:#d3766a"></path><path d="M214,264.26c-3.81,11.35-26.19,64.86-36.49,79.87-11.42,16.63-32.6,7.87-32.13-8.27.75-25.34,34.7-65.74,57.68-87.74C218.18,233.64,217.9,252.59,214,264.26Z" style="fill:#455a64"></path><path d="M154.3,332.25a1.73,1.73,0,1,0,1.62,1.84A1.73,1.73,0,0,0,154.3,332.25Zm19,1.17a1.73,1.73,0,1,0,1.62,1.84A1.74,1.74,0,0,0,173.27,333.42ZM163,346.32a1,1,0,0,0-.38,0,1.71,1.71,0,0,0-1.46,1.59,1.66,1.66,0,0,0,.38,1.17,1.64,1.64,0,0,0,1.24.66,1.73,1.73,0,1,0,.22-3.45Zm-6.5-41.18c-.57,1-1.15,2-1.68,2.95a1.69,1.69,0,0,0,1,.4,1.74,1.74,0,0,0,1.83-1.62A1.72,1.72,0,0,0,156.46,305.14Zm18.48,1.05a1.73,1.73,0,1,0,1.62,1.83A1.74,1.74,0,0,0,174.94,306.19Zm20.56,2.62a1.67,1.67,0,0,0-.45-.91,1.7,1.7,0,0,0-1.16-.55,1.73,1.73,0,0,0-.21,3.46h0a1.6,1.6,0,0,0,1-.27,1.7,1.7,0,0,0,.8-1.36A1.14,1.14,0,0,0,195.5,308.81Zm-29.29,11.71a.24.24,0,0,0,0-.16,1.7,1.7,0,0,0-1.54-1.27,1.73,1.73,0,0,0-1.84,1.62,1.57,1.57,0,0,0,.07.57.44.44,0,0,0,0,.1,1.71,1.71,0,0,0,1.53,1.16h0a1.64,1.64,0,0,0,.79-.14,1.72,1.72,0,0,0,1-1.48A1.33,1.33,0,0,0,166.21,320.52Zm18.73.55a1.71,1.71,0,0,0-2.91,0,1.58,1.58,0,0,0-.28.82,1.73,1.73,0,0,0,3.46.22A1.64,1.64,0,0,0,184.94,321.07ZM176.61,279a1.73,1.73,0,1,0,1.62,1.83A1.73,1.73,0,0,0,176.61,279Zm18.95,1.16a1.74,1.74,0,1,0,1.63,1.84A1.73,1.73,0,0,0,195.56,280.12ZM166.3,291.86a1.73,1.73,0,1,0,1.62,1.83A1.74,1.74,0,0,0,166.3,291.86Zm19,1.16a1.75,1.75,0,0,0-1.84,1.62,1.73,1.73,0,1,0,1.84-1.62ZM198,253.12l-2.33,2.36a1.74,1.74,0,0,0,1.4.88,1.71,1.71,0,0,0,.95-.22l0,0h0a1.31,1.31,0,0,0,.24-.17,1.34,1.34,0,0,0,.2-.21s0,0,0,0a1.47,1.47,0,0,0,.31-.56,1.26,1.26,0,0,0,.08-.43A1.66,1.66,0,0,0,198,253.12Zm18.17.94c-.11,0-.22,0-.33,0a1.63,1.63,0,0,0-.57.21,1.19,1.19,0,0,0-.23.16,1.72,1.72,0,0,0-.56.88,1.41,1.41,0,0,0-.05.35,1.06,1.06,0,0,0,0,.31.7.7,0,0,0,.05.25.13.13,0,0,0,0,.06.64.64,0,0,0,.08.19.18.18,0,0,0,.05.11.72.72,0,0,0,.13.19s0,0,0,0a.65.65,0,0,0,.13.16.5.5,0,0,0,.15.14l.06,0a.27.27,0,0,0,.16.1.4.4,0,0,0,.17.09.85.85,0,0,0,.28.1.43.43,0,0,1,0-.11,28.39,28.39,0,0,0,.38-2.84c0-.15,0-.3,0-.45ZM186.93,265.8a1.73,1.73,0,1,0,1.63,1.83A1.74,1.74,0,0,0,186.93,265.8Zm19,1.16a1.73,1.73,0,1,0,1.63,1.83A1.73,1.73,0,0,0,205.89,267Z" style="fill:#37474f"></path><path d="M185,328.72c2.28-4.72,4.66-9.4,6.93-14.13,4.53-9.48,8.85-19,13.06-28.68,2.39-5.48,4.68-11,7.15-16.47,0-.06.13,0,.1,0-1.51,4.58-3.19,9.11-5,13.61.26-.49.52-1,.79-1.47.77-1.43,1.6-2.82,2.43-4.22.09-.15.36,0,.28.15-1,2-2.14,4-3.27,5.9-.28.48-.54,1-.84,1.43l-.26.4c-1.86,4.6-3.81,9.16-5.81,13.68-4.28,9.66-8.71,19.27-13.55,28.67-2.69,5.23-5.73,10.24-8.59,15.37-.08.14-.33,0-.25-.13C180.55,338.22,182.7,333.43,185,328.72Z" style="fill:#263238"></path><path d="M209.26,338.9c-22.33-11.17-53.94-22.36-61-7.81-6.46,13.25,15.62,32.41,36.38,46.89Z" style="fill:#d3766a"></path><path d="M251.47,367c-.69,4.57-5.42,5.32-5.42,5.32a9.87,9.87,0,0,1,.41,6.7c-1.33,3.83-7.93,3.44-7.93,3.44a12.16,12.16,0,0,1-.69,7.13c-1.65,3.54-8.37,4.09-8.37,4.09a10.68,10.68,0,0,1-4.55,5.89c-6,3.37-15.16-1.62-21-4.73s-22.11-18.4-25-20.87L202,336.16s29.3,7.31,35.69,11.94C243.09,352,252.23,361.84,251.47,367Z" style="fill:#d3766a"></path><path d="M246.08,372.05c-4.73-5.53-10.83-9.36-16.71-13.53-.13-.09-.27.12-.14.21,5.89,4.08,10.9,9.27,16.61,13.57A.18.18,0,0,0,246.08,372.05Z" style="fill:#263238"></path><path d="M238.57,382.12a18.74,18.74,0,0,0-4-2.95q-2.22-1.41-4.49-2.75c-3-1.79-6.1-3.52-9.22-5.15-.13-.07-.28.12-.14.21,3,1.79,6,3.62,8.94,5.54q2.21,1.44,4.39,2.91a22.14,22.14,0,0,0,4.24,2.58A.25.25,0,0,0,238.57,382.12Z" style="fill:#263238"></path><path d="M229.35,393.57a13.28,13.28,0,0,0-3.73-2.46l-4.18-2.38c-2.78-1.61-5.55-3.22-8.27-4.92-.13-.08-.28.12-.14.21,2.75,1.74,5.48,3.52,8.25,5.24q2,1.26,4.09,2.51a12.5,12.5,0,0,0,3.9,1.94C229.35,393.73,229.39,393.63,229.35,393.57Z" style="fill:#263238"></path><path d="M207.2,335.85,176.66,379s-6.93-.95-11.3-5.36c-5.8-5.86-11.79-16.67-15.84-24.24C142.26,335.83,144.26,321,168,323c8.87.73,20.87,1.18,28.4,4.18A22.15,22.15,0,0,1,207.2,335.85Z" style="fill:#455a64"></path><path d="M171.21,377a1.27,1.27,0,0,0-.39.3,24.16,24.16,0,0,0,2.94,1.08,1.8,1.8,0,0,0-.2-.7A1.74,1.74,0,0,0,171.21,377Z" style="fill:#455a64"></path><path d="M178.49,362.14a1.73,1.73,0,1,0,2.35.69A1.73,1.73,0,0,0,178.49,362.14Z" style="fill:#455a64"></path><path d="M162.09,360.31a1.72,1.72,0,0,0-.69,2.35,1.73,1.73,0,1,0,3-1.67A1.72,1.72,0,0,0,162.09,360.31Z" style="fill:#455a64"></path><path d="M186,347.2a1.71,1.71,0,0,0-.69,2.34,1.73,1.73,0,0,0,3-1.66A1.72,1.72,0,0,0,186,347.2Z" style="fill:#455a64"></path><path d="M169.35,345.48a1.74,1.74,0,1,0,2.35.68A1.73,1.73,0,0,0,169.35,345.48Z" style="fill:#455a64"></path><path d="M193.28,332.36a1.74,1.74,0,1,0,2.35.69A1.74,1.74,0,0,0,193.28,332.36Z" style="fill:#455a64"></path><path d="M153,343.64a1.73,1.73,0,1,0,2.35.69A1.72,1.72,0,0,0,153,343.64Z" style="fill:#455a64"></path><path d="M176.87,330.53a1.73,1.73,0,1,0,1.67,3,1.73,1.73,0,0,0-1.67-3Z" style="fill:#455a64"></path><path d="M160.23,328.83a1.72,1.72,0,0,0-.69,2.34,1.73,1.73,0,0,0,3-1.66A1.72,1.72,0,0,0,160.23,328.83Z" style="fill:#455a64"></path><path d="M171.43,370c2.41-2.76,4.45-5.89,6.58-8.87s4.17-5.9,6.23-8.88c4.15-6,8.47-11.93,12.23-18.19a.14.14,0,0,0-.22-.16c-4.76,5.6-9,11.73-13.18,17.75q-3.16,4.53-6.22,9.14a96.79,96.79,0,0,0-5.67,9.07C171.11,370,171.33,370.06,171.43,370Z" style="fill:#263238"></path><path d="M206.5,336.84l.66-1v.05a18.15,18.15,0,0,0-3.65-4.17,22.41,22.41,0,0,0-4.6-3.05,22,22,0,0,0-5.2-1.84c-1.79-.46-3.63-.76-5.47-1.08-3.67-.62-7.37-1-11.08-1.49s-7.43-.8-11.12-1.38l5.59.38,5.59.43q5.58.48,11.15,1.33c1.84.32,3.69.66,5.51,1.14a21.64,21.64,0,0,1,5.31,2,19.7,19.7,0,0,1,8.05,7.72l0,0,0,0Z" style="fill:#263238"></path><path d="M180.89,324c-1.45-.36-2.86-.83-4.26-1.29s-2.79-1-4.21-1.43a10.93,10.93,0,0,1,2.21.34c.73.16,1.45.38,2.16.61A27,27,0,0,1,180.89,324Z" style="fill:#263238"></path><path d="M181.92,347.45a1.73,1.73,0,1,0,1.62,1.84A1.73,1.73,0,0,0,181.92,347.45Zm10.3-12.9a1.73,1.73,0,1,0,1.63,1.83A1.73,1.73,0,0,0,192.22,334.55Zm-13.53,40.93a1.58,1.58,0,0,0-.28.82.81.81,0,0,0,0,.22l1.27-1.77A1.67,1.67,0,0,0,178.69,375.48Zm-7.09-14.87a1.74,1.74,0,1,0,1.62,1.84A1.76,1.76,0,0,0,171.6,360.61ZM163,346.32a1,1,0,0,0-.38,0,1.71,1.71,0,0,0-1.46,1.59,1.66,1.66,0,0,0,.38,1.17,1.64,1.64,0,0,0,1.24.66,1.73,1.73,0,1,0,.22-3.45Zm10.31-12.9a1.73,1.73,0,1,0,1.62,1.84A1.74,1.74,0,0,0,173.27,333.42Zm-19-1.17a1.73,1.73,0,1,0,1.62,1.84A1.73,1.73,0,0,0,154.3,332.25Z" style="fill:#37474f"></path><path d="M219.91,243.71c.73,1.71,6.72,14.85,14.94,15.82,2.68.31,5-14.23,5-14.23l.42-1,5.86-14.48L228.07,213.6S218.66,240.79,219.91,243.71Z" style="fill:#d3766a"></path><path d="M225.61,221a52,52,0,0,0,.79,5.59c2.41,12.51,9,16.87,13.63,18.38l.27-.7,5.86-14.48-18.09-16.17S227,216.73,225.61,221Z" style="fill:#263238"></path><path d="M275.29,213.26c-3,28.89-20.64,30.36-26.87,29.71-5.65-.59-24.84-3.33-24.85-32.38S238,173.8,251,174.47,278.28,184.36,275.29,213.26Z" style="fill:#d3766a"></path><path d="M271.05,209.83c-.66-.2-1.24-.49-1.87-.75a3.21,3.21,0,0,1-1.75-1.12,1,1,0,0,1,.22-1.24,2.55,2.55,0,0,1,2.59-.16,3.84,3.84,0,0,1,2.1,1.72A1.1,1.1,0,0,1,271.05,209.83Z" style="fill:#263238"></path><path d="M252.33,205.77a18.49,18.49,0,0,0,1.95-.48,3.21,3.21,0,0,0,1.89-.86,1,1,0,0,0,0-1.26,2.57,2.57,0,0,0-2.54-.52,3.73,3.73,0,0,0-2.32,1.41A1.1,1.1,0,0,0,252.33,205.77Z" style="fill:#263238"></path><path d="M251.25,228.8c.36.56.67,1.29,1.35,1.51a5.21,5.21,0,0,0,2.19,0,.07.07,0,0,1,.06.12,2.66,2.66,0,0,1-2.69.46,2.09,2.09,0,0,1-1.11-2.06A.1.1,0,0,1,251.25,228.8Z" style="fill:#263238"></path><path d="M260.65,223.21s-.11,3-.36,4.36c0,.12-.37.13-.84.07,0,0,0,0-.05,0a6.62,6.62,0,0,1-5.9-3.57c-.07-.15.13-.26.24-.15a10,10,0,0,0,5.65,2.77c.17-.36.05-5.16.25-5.09.89.32,2.42,1,3,1.27.12-1.94.19-7.45.42-11,0-.22.36-.23.38,0a94.76,94.76,0,0,1,.4,12.41C263.82,224.61,261.16,223.55,260.65,223.21Z" style="fill:#263238"></path><path d="M259.53,226.57a8,8,0,0,1-3.39,2.3,3.58,3.58,0,0,1-2.22,0c-1.58-.52-1.53-2-1.15-3.22a8.76,8.76,0,0,1,.83-1.88A10.53,10.53,0,0,0,259.53,226.57Z" style="fill:#263238"></path><path d="M256.14,228.87a3.58,3.58,0,0,1-2.22,0c-1.58-.52-1.53-2-1.15-3.22C254.47,225.93,256.09,227.2,256.14,228.87Z" style="fill:#ff9cbd"></path><path d="M268.87,214.09c.45.42.84,1.1,1.43,1.23s1.3-.44,1.85-1c.06-.06.1,0,.09.09-.16,1.21-.76,2.4-2,2.45s-1.7-1.12-1.79-2.36C268.47,214.24,268.69,213.93,268.87,214.09Z" style="fill:#263238"></path><path d="M269.48,215.71a2.79,2.79,0,0,0-.47-1.42,2,2,0,0,0-1.4-.82,1.79,1.79,0,0,0-1.53.6,3.26,3.26,0,0,0-.68,1.3,5.28,5.28,0,0,0-.15.87,3.85,3.85,0,0,0,.2,1.82,5.69,5.69,0,0,1,.21-1.31,9.7,9.7,0,0,1,.39-1.15c.33-.75.86-1.35,1.48-1.24s1.08.64,1.26,1.45a13.09,13.09,0,0,1,.22,2.55A5.79,5.79,0,0,0,269.48,215.71Z" style="fill:#263238"></path><path d="M252.18,211.57c-.61.25-1.27.77-1.94.71s-1.23-.84-1.61-1.57c0-.07-.1,0-.12.06-.25,1.2,0,2.52,1.23,2.94s2.19-.51,2.73-1.66C252.56,211.83,252.43,211.47,252.18,211.57Z" style="fill:#263238"></path><path d="M251.29,212.64a2.82,2.82,0,0,1,1-1.13,2.05,2.05,0,0,1,1.61-.21,1.85,1.85,0,0,1,1.18,1.15,3.24,3.24,0,0,1,.12,1.47,5.11,5.11,0,0,1-.2.86,3.94,3.94,0,0,1-.89,1.6,6,6,0,0,0,.32-1.3,9.94,9.94,0,0,0,.08-1.2c0-.82-.27-1.58-.88-1.72s-1.25.16-1.72.85a13.05,13.05,0,0,0-1.2,2.26A5.85,5.85,0,0,1,251.29,212.64Z" style="fill:#263238"></path><path d="M224.23,212c7.13,1.6,14.87-19.57,15.79-22.18-.49,1.67-3.08,10.55-2.49,11.08a7.06,7.06,0,0,0,2.33.16h0a22.12,22.12,0,0,1,1.1-3.13c.18-.48-.1,1.13-.33,3.13l1.4,0a26.6,26.6,0,0,1,2.45-6.62c.43-.79-.34,3.07-.4,6.6,5.22,0,12.71.08,19.34,1.58,1.78.4,3.3.82,4.63,1.24.7-2.64,1.13-5.53,1.16-4.88a25.59,25.59,0,0,1-.18,5.2c.72.23,1.38.46,2,.67,1.16-3.68.94-10.09,1.3-9a27.28,27.28,0,0,1,1.2,10.12c2.41,1.16,3,1.84,3.23,1.2.43-1.16,1.71-12-4.41-21.75-6.65-10.62-23.72-17.33-37-7.12,0,0-9.57,3.2-13.11,11.46S220.12,211.07,224.23,212Z" style="fill:#263238"></path><polygon points="234.59 205.71 227.87 198.68 226.15 200.61 233.6 206.77 234.59 205.71" style="fill:#F36DA8"></polygon><polygon points="233.09 207.69 225.22 201.97 223.88 204.17 232.31 208.91 233.09 207.69" style="fill:#F36DA8"></polygon><path d="M227.94,213.29s-4.52-10.1-9-8.66-2.26,15.25,2.14,17.93a4.92,4.92,0,0,0,7-1.35Z" style="fill:#d3766a"></path><path d="M219.68,208.57c-.07,0-.11.09-.05.13,3.07,2,4.23,5.4,4.84,8.84-.75-1.43-2-2.36-3.84-1.5-.1.05,0,.2.05.2a3,3,0,0,1,3.07,1.66,15.16,15.16,0,0,1,1.06,2.94c.09.33.66.27.61-.09a.19.19,0,0,0,0-.08C226.31,216.44,224.15,209.88,219.68,208.57Z" style="fill:#263238"></path></g><g id="freepik--character-2--inject-29"><path d="M334.38,432.6l0-.4H287.32c-2.18-23.54-4.28-46.63-6-65.88-.07-.8-.15-1.61-.22-2.42-.42-4.69-.82-9.13-1.19-13.27-.08-.83-.16-1.65-.23-2.46-.06-.65-.12-1.29-.17-1.93-1.6-17.78-2.6-29.07-2.6-29.07h83.22l0,.25c.05.43.18,1.4.36,2.87h0c.1.81.22,1.77.36,2.87,0,.22.06.46.09.7s0,.23.05.35,0,.27.05.41,0,0,0,0c.64,5,1.57,12.27,2.72,21.23,0,.35.09.7.14,1.06l.12,1c0,.17.05.34.07.52.38,3,.78,6.11,1.21,9.4.14,1.15.29,2.31.44,3.49l.33,2.54c0,.11,0,.22,0,.33s.06.48.1.72q.4,3.26.85,6.64c0,.35.09.71.14,1.07.12,1,.26,2,.39,3.1,1.25,9.75,2.6,20.27,4,31.18l.24,1.86q.54,4.23,1.09,8.53c.63,4.91,1.26,9.88,1.9,14.87,0,.13,0,.26.05.4Z" style="fill:#37474f"></path><path d="M300.19,432.2h-1.32c-2.83-25.49-5.25-51-7.49-76.59-.05-.53-.09-1.07-.14-1.6v0h0c0-.37-.07-.74-.1-1.11-.14-1.57-.27-3.14-.41-4.72l-.15-1.79q-.78-9.12-1.54-18.25c0-.21.3-.21.33,0q.92,8.86,1.81,17.72v.05c0,.16,0,.32.05.48.19,2,.4,4,.59,6h0c0,.28.06.55.08.83.1.93.19,1.85.29,2.78,2.13,21.21,4.27,42.39,6.59,63.57Q299.47,425.87,300.19,432.2Z" style="fill:#263238"></path><path d="M348.09,317.17l-.08.53,0,.13-.32,2.1-.05.36h0l-.59,3.86-3.38,22.3-.72,4.71-.34,2.25L341,363.94l-.09.64-1,6.63-1.6,10.52-1.4,9.25h0l-.39,2.49v0l-1,6.65h0l-.08.46-.26,1.79h0l-2,13-2.56,16.81H277l-10.57-59.72c-.09-.53-.18-1-.27-1.54h0c-1.63-9.2-3.12-17.63-4.42-24.95-.25-1.43-.5-2.82-.74-4.17-.13-.78-.27-1.54-.4-2.28-2.45-13.86-4-22.36-4-22.36Z" style="fill:#263238"></path><path d="M360.18,317.09s0,.11,0,.33c-.07.47-.22,1.45-.45,2.87h0q-.12.82-.3,1.86c-.05.29-.1.6-.15.91,0,.09,0,.18-.05.28a.5.5,0,0,1,0,.12c-.06.35-.12.71-.18,1.09-.9,5.27-2.29,12.93-4.12,21.72-.3,1.46-.62,3-.95,4.48-.38,1.76-.78,3.57-1.2,5.39-.63,2.76-1.3,5.58-2,8.42-.13.55-.26,1.1-.4,1.64-.61,2.42-1.24,4.85-1.91,7.27a243.42,243.42,0,0,1-8,24.69h0c-.09.26-.18.49-.29.74,0,0-1.15.36-3.26,1.16l-1.44.56c-.93.36-2,.8-3.17,1.3l-1,.42-1.72.78c-3.49,1.56-7.73,3.61-12.56,6.23l-.6.32-.78.43s0,.19,0,.55c-.16,2.11-.77,10.12-1.63,21.54H231.34c3.24-33,6.45-64.91,8.66-86.72.54-5.34,1-10.07,1.43-14.07a1.94,1.94,0,0,0,0-.24c0-.14,0-.28.05-.42.05-.49.09-1,.15-1.43.78-7.76,1.24-12.23,1.24-12.23Z" style="fill:#37474f"></path><path d="M252.19,329.94l-.39,5.14-.15,1.93-.66,8.76c-2,25.63-3.85,51.25-5.91,76.86l-.78,9.57h-1.18q3.69-43.21,7.12-86.45c.24-3,.48-6.07.73-9.1l.15-1.93c.13-1.59.25-3.18.38-4.77C251.53,329.5,252.22,329.5,252.19,329.94Z" style="fill:#263238"></path><path d="M344.32,396.74c-9.95,3.42-19.55,8.28-28.73,13.37a.32.32,0,0,0,.27.59c9.68-4.15,19.54-8.13,29-12.81A.63.63,0,0,0,344.32,396.74Z" style="fill:#263238"></path><path d="M347.39,330.34c0-.33-.61-.41-.61,0a321.48,321.48,0,0,1-1.62,32.32c-.45,5-4.46,32.53-13.1,30.52-1.45-.33-2.19-1.76-2.42-3.94-.27-2.62.72-5.84,1.15-8.45,1-5.76,1.73-11.55,2.23-17.37a157.67,157.67,0,0,0-.36-32.58.28.28,0,0,0-.55,0c0,15.05-.38,30.07-2.63,45-1.09,7.16-4.69,17.95,2.8,19.05s12.57-16.94,13.5-21.89C348.38,359.18,348.48,344.3,347.39,330.34Z" style="fill:#263238"></path><path d="M332.29,393.88a48,48,0,0,0-2,5.71,13.14,13.14,0,0,0-.81,4.7.34.34,0,0,0,.6.12,16.37,16.37,0,0,0,2-4.56c.66-1.77,1.35-3.52,2-5.3A1,1,0,0,0,332.29,393.88Z" style="fill:#263238"></path><path d="M293.18,339.35a15.74,15.74,0,0,0-.37-3.57.18.18,0,0,0-.35,0,13.84,13.84,0,0,0-.4,3.09c-.12,1.18-.28,2.36-.41,3.55a53.16,53.16,0,0,1-1.26,7.2,25.59,25.59,0,0,1-6.6,11.85,34.29,34.29,0,0,1-11.16,7.35c-4.64,2-9.53,2.7-14.32,4.11a.18.18,0,0,0,.05.35,41.1,41.1,0,0,0,15.51-3.05,33.12,33.12,0,0,0,11.64-7.42,26,26,0,0,0,6.79-12.2,36.61,36.61,0,0,0,.93-7.22A32.2,32.2,0,0,0,293.18,339.35Z" style="fill:#263238"></path><path d="M323.44,196.69c.18,18.22,4.11,85.52,20.73,104.49C355.36,314,388.4,330,401,333c6.11,1.46,24.8-50,18.67-52.71-6.66-3-39.1-12.87-42.87-16.18s-21.19-45.17-34-67.71C335.09,182.88,323.35,186.43,323.44,196.69Z" style="fill:#eb9481"></path><path d="M398.8,331.92c9.58,5.5,47.77,13.74,55.46,14.19s29.92.14,30.86-5.71-5.57-6.29-5.57-6.29,10.28-1.62,9.78-7.59c-.4-4.77-9.53-5.86-9.53-5.86s11.17-2.37,9.91-8.23c-1.14-5.34-11.28-4-11.28-4s9.14-2.93,7.05-7.86c-2.52-5.94-18.34-.87-26.8-2-1.92-.26-44-19.74-44-19.74Z" style="fill:#eb9481"></path><path d="M478.64,307.94c-12.25,2.58-17.38,3.29-29,.25-.23-.06-.37.26-.14.35,11.13,4,17.29,3.61,29.37-.05C479.43,308.31,479.21,307.82,478.64,307.94Z" style="fill:#263238"></path><path d="M479.73,320.56c-12.44,2.78-18.52,2.14-30.94-.16a.16.16,0,0,0-.07.31c12,3.27,19.14,4.64,31.19.23C480.46,320.74,480.3,320.44,479.73,320.56Z" style="fill:#263238"></path><path d="M478.94,334c-12.24,1.82-19.08,1.7-30.85-2.07a.23.23,0,0,0-.17.42c11.63,5,20.17,5.23,31,2C479.69,334.16,479.71,333.89,478.94,334Z" style="fill:#263238"></path><path d="M414.7,278.79s14.43,1.34,21.32,1.64,26.43-1.56,29.84,3.28c3.83,5.43-12.57,12.56-24.84,12.13,0,0-6.54,19.09-18.35,19.23-2.56,0-14.76-4.95-16.12-7.55Z" style="fill:#eb9481"></path><path d="M439.75,296.24c-2.28,7.52-8,16.13-15.6,18.19a.18.18,0,0,0,.07.36c8.41-1.11,15.16-11,16.79-17.86C441.33,295.61,440.34,294.29,439.75,296.24Z" style="fill:#263238"></path><path d="M413.85,275.56,398.17,334.3s-48-20.83-56.61-33.95-19.51-68.07-18.93-98.51,18.9-9.93,21.53-5,32.7,64.77,34.43,66.06S413.85,275.56,413.85,275.56Z" style="fill:#F36DA8"></path><path d="M400.13,275.86c-.51,1.56-1.15,3.08-1.63,4.66s-.94,3.05-1.37,4.59c-.89,3.13-1.74,6.26-2.6,9.39-1.72,6.27-3.41,12.56-4.91,18.89-.42,1.8-.84,3.59-1.28,5.39a35.65,35.65,0,0,0-1.06,5.19.1.1,0,0,0,.2,0,32.93,32.93,0,0,0,1.59-4.67l1.38-4.59q1.41-4.67,2.71-9.35c1.7-6.18,3.39-12.35,5-18.56q.67-2.68,1.32-5.38c.42-1.81.68-3.64,1.07-5.46C400.58,275.74,400.22,275.59,400.13,275.86Z" style="fill:#263238"></path><path d="M366.65,345.42c-2.1,2.24-131.49.57-132.17-.28-1.84-2.29,35.42-134.78,66-158.53,6.57-5.11,29.74-3.31,32.89-1.45,7.28,4.32,13.77,12.82,18.51,28C361.35,243.52,368.48,343.45,366.65,345.42Z" style="fill:#F36DA8"></path><path d="M367.37,335c.07-3.37,0-6.75-.09-10.11-.13-6.68-.46-13.35-.88-20-.86-13.41-2.15-26.79-4-40.08-1.08-7.5-2.37-15-4-22.4a.11.11,0,1,0-.22,0c1.54,13.29,3.18,26.57,4.47,39.9s2.26,26.56,2.86,39.89c.17,3.74.35,7.48.48,11.22s.41,7.72.51,11.58c0,.44.66.53.66.07C367.23,341.72,367.31,338.35,367.37,335Z" style="fill:#263238"></path><path d="M281.31,211.8C255.85,261.61,243.56,332.62,263.8,342c19.79,9.14,68.64-15.9,94-48.4,4.1-5.25-31.4-40.31-36.93-35.81-7.7,6.27-15.84,17.24-16.68,17.43-1.81.39,3.36-45.67,3.29-68.12C307.41,175.8,290.87,193.1,281.31,211.8Z" style="fill:#eb9481"></path><path d="M275.23,312.71a52.24,52.24,0,0,1,3.78-8.65,61.61,61.61,0,0,1,4.8-8,103,103,0,0,1,20.71-21.17c.1-.07.2,0,.11.14-1.27,1.16-14.18,14.32-19,20.81-1.84,2.48-3.44,5.12-5,7.77-.91,1.51-1.79,3-2.62,4.59s-1.56,3.15-2.44,4.67A.16.16,0,0,1,275.23,312.71Z" style="fill:#263238"></path><path d="M318,260.32s12.59-16,21.31-26c4.87-5.62,14.07-14.49,19.53-17,8.17-3.72,44.71-14.06,47.41-5.26,2.44,8-10.41,9.47-10.41,9.47s13.89-3,13.88,5.69-16.94,9-16.94,9,14.54-4.16,13.65,5.07c-.77,8-20.23,10.5-20.23,10.5s14.78-6,14.79,2.25c0,9.16-28.69,16.55-28.69,16.55-7.68,15.65-16.26,26.3-23.84,32.46C346.61,304.56,318,260.32,318,260.32Z" style="fill:#eb9481"></path><path d="M397.23,235.51c-1.32.08-2.65.2-4,.28a66.48,66.48,0,0,0-7.72.83c-2.49.45-4.94,1-7.39,1.66s-5.11,1.63-7.71,2.24a.15.15,0,1,0,.08.29,68.16,68.16,0,0,1,7.77-1.46c2.55-.42,5.11-.81,7.66-1.2s5-.92,7.44-1.37c1.24-.23,2.49-.4,3.74-.57a21.33,21.33,0,0,0,3.55-.56c.11,0,.07-.19,0-.21A16.22,16.22,0,0,0,397.23,235.51Z" style="fill:#263238"></path><path d="M398.7,221c-2.23-.27-11.91.79-14.37,1.2a72.92,72.92,0,0,0-13.94,3.78c-.16.06-.09.32.07.29,4.77-.78,9.53-1.64,14.28-2.49,2.33-.41,12.94-2,14-2.28C399,221.39,398.94,221,398.7,221Z" style="fill:#263238"></path><path d="M396.21,249.22c-2.14-.15-11.2.92-13.49,1.38a93,93,0,0,0-13.11,4.54c-.15.08-.09.33.08.28,4.47-1.17,8.9-2.42,13.42-3.37,2.2-.47,11.09-1.82,13.15-2.45A.2.2,0,0,0,396.21,249.22Z" style="fill:#263238"></path><path d="M315.6,259.88l41.81,47S327.25,331.4,300,344c-13.46,6.24-28.31,5.82-36.38,1-24.43-14.46.13-104.11,14.76-130.83s30.77-38.7,30.43.36-2.49,55.59-2.49,55.59Z" style="fill:#F36DA8"></path><path d="M347.15,310.23c-1.18-1.37-2.25-2.83-3.46-4.18s-2.36-2.61-3.56-3.89q-3.67-3.9-7.39-7.77c-4.94-5.18-9.91-10.33-15-15.33-1.46-1.42-2.92-2.83-4.36-4.26a38.11,38.11,0,0,0-4.3-3.94c-.11-.09-.22.06-.15.16a37.31,37.31,0,0,0,3.5,4.15l3.55,3.9q3.6,4,7.3,7.85c4.85,5.11,9.72,10.2,14.67,15.21,1.43,1.45,2.88,2.87,4.33,4.29s3.05,2.72,4.55,4.11C347,310.73,347.35,310.47,347.15,310.23Z" style="fill:#263238"></path><path d="M277.18,307.9a51.92,51.92,0,0,1,3.79-8.65,61.54,61.54,0,0,1,4.79-8A103.25,103.25,0,0,1,306.47,270c.11-.07.2,0,.11.14-1.26,1.16-14.18,14.32-19,20.81-1.84,2.47-3.44,5.12-5,7.76q-1.37,2.26-2.63,4.59c-.83,1.55-1.56,3.16-2.43,4.68A.17.17,0,0,1,277.18,307.9Z" style="fill:#263238"></path><path d="M317.23,261.19a8.15,8.15,0,0,0-1.81-1.88c-.6.2-7.13,8-8.78,10.26.42-2.61.73-5.45,1-8.08q.36-4.33.67-8.67c.32-4.6.62-9.22.75-13.84.61-2.45,1.09-4.93,1.55-7.4,0-.1-.13-.14-.15,0-.47,1.73-.94,3.48-1.35,5.23,0-.43,0-.86,0-1.3,0-3.3.06-6.61-.08-9.91a.1.1,0,0,0-.19,0c-.94,11.51-1.2,23.07-2,34.59-.22,3.25-.61,10.2-.58,10.2s8.83-9.94,9.1-10.11A10.94,10.94,0,0,1,317,261.4C317.11,261.51,317.33,261.36,317.23,261.19Z" style="fill:#263238"></path><path d="M265.3,345.48a18.5,18.5,0,0,1-5-4.42,25.73,25.73,0,0,1-3.24-5.76A49.61,49.61,0,0,1,254,321c-1.05-11.62.29-23.3,2.37-34.74,1.18-6.52,2.6-13,3.85-19.48a.17.17,0,0,0-.32-.08c-1.78,6.22-3.38,12.51-4.68,18.86.26-3.5.51-7,.85-10.51,0,0-.08-.05-.08,0a86,86,0,0,0-1.17,12.5c-.93,4.81-1.67,9.66-2.16,14.53a94.62,94.62,0,0,0-.15,17.81A53.74,53.74,0,0,0,255.69,335c1.74,4.35,4.83,9,9.55,10.65C265.33,345.65,265.37,345.53,265.3,345.48Z" style="fill:#263238"></path><path d="M352.33,300.61c-.39-.32-.64,0-.29.33,1.82,1.9,3.38,3.82,5.07,5.72-7.81,5.58-15.63,11.15-23.64,16.44-8.2,5.41-16.51,10.63-25,15.58-2.34,1.37-4.69,2.71-7,4.05a36.89,36.89,0,0,1-7.47,3.58c-.1,0-.05.18,0,.15,4.66-1.32,8.87-3.73,13.09-6s8.55-4.77,12.76-7.26q12.76-7.56,24.95-16.06c4.55-3.18,9.63-6.7,13.91-10.24C358.88,306.73,354.46,302.39,352.33,300.61Z" style="fill:#263238"></path><path d="M329.62,212.11c-8.27.68-20.14-13.61-24.06-24.33-.26-.73,1.86-7.73,4-16.35,1.3-5.23,2.62-11.09,3.44-16.53.17-1.11,32.84,13.45,32.84,13.45s-5.07,10.88-6.45,20.37a11.64,11.64,0,0,0-.1,2.26c0,.11,0,.24,0,.38C339.37,195.7,337.62,211.45,329.62,212.11Z" style="fill:#eb9481"></path><path d="M315.12,155.36c.19,9.43,2.54,32.5,20.67,35.66a19.7,19.7,0,0,0,3.52.34,1.66,1.66,0,0,0,0-.38,14.57,14.57,0,0,1,.1-2.26c1.38-9.5,6.46-20.38,6.46-20.38S322.31,157.83,315.12,155.36Z" style="fill:#263238"></path><path d="M372.07,112.4s8.31,8.38,5.88,19.35-9.24,20.71-10.35,20.87S372.07,112.4,372.07,112.4Z" style="fill:#263238"></path><path d="M322.83,107.17c-7.71,10.31-13.66,46-8.11,56.41,8,15.13,27.22,23.22,41.59,12.17,13.93-10.7,20.86-57.33,14.11-67.43C360.46,93.45,334.23,91.94,322.83,107.17Z" style="fill:#eb9481"></path><path d="M316,142c3.93,1.75,10.11-10,12-14.52,1.68-4,4.62-17,4.93-17.93s16.39,13.83,27,12.07,18.65-10.16,19.32-14.46-10.79-16.78-21.78-18.68-27.66,10.35-27.66,10.35,5.82-5.46,5.71-6-7.6,1.47-9.53,6.4c0,0,2.18-6.22,1.66-6.4s-6.74,4.61-6,8.91c0,0-7.1,4.79-8.43,10.81S311.41,139.91,316,142Z" style="fill:#263238"></path><path d="M367.59,120.32c-3.31,1.06-6.63,2.26-10.15,2.3a23.43,23.43,0,0,1-10.88-3.12,35.27,35.27,0,0,1-9-6.94c-2.32-2.43-4.29-5.26-6.81-7.48-.63-.56-1.55.33-1.2,1a37.2,37.2,0,0,0,17,16c7.2,3.28,14.44,2.46,21.09-1.71C367.66,120.38,367.64,120.3,367.59,120.32Z" style="fill:#263238"></path><path d="M369,151.36c-2.91,10.71-7.25,20.25-12.65,24.39-14.37,11.05-33.55,3-41.59-12.17-2.3-4.33-2.63-13-1.66-22.43l11.46-6.78s.7,9.64,2.64,12.34,7.06,6.35,11.26,6.91c4,.53,10.25.94,12.3-.28l3.79,1.41s2.41,3.83,5.41,3.95,5.12-.42,6.47-2.25A27,27,0,0,0,369,151.36Z" style="fill:#263238;opacity:0.30000000000000004"></path><path d="M347.91,140.85c0-.1-.21.08-.22.18-.34,2.41-1.13,5.12-3.44,5.54-.07,0-.08.14,0,.14C347,146.79,348,143.19,347.91,140.85Z" style="fill:#263238"></path><path d="M346.2,138c-3.81-1-5.45,6.74-1.92,7.62S349.39,138.77,346.2,138Z" style="fill:#263238"></path><path d="M361.56,143.2c0-.08.16.16.14.25-.58,2.37-.85,5.18,1.14,6.43.06,0,0,.16,0,.13C360.24,149.08,360.63,145.35,361.56,143.2Z" style="fill:#263238"></path><path d="M364.22,141.17c3.89.52,2.56,8.27-1.05,7.79S361,140.73,364.22,141.17Z" style="fill:#263238"></path><path d="M343.91,133.81a28.89,28.89,0,0,0,3.2-.42c1.23-.17,2.22-.18,3.19-1a1.67,1.67,0,0,0,.15-2c-.93-1.27-2.49-1.43-4-1.28a6,6,0,0,0-4,1.84A1.77,1.77,0,0,0,343.91,133.81Z" style="fill:#263238"></path><path d="M368,137.93a27.85,27.85,0,0,1-2.89-1.45,5.18,5.18,0,0,1-2.67-2,1.65,1.65,0,0,1,.52-2c1.3-.89,2.82-.53,4.17.09a6.05,6.05,0,0,1,3.14,3A1.77,1.77,0,0,1,368,137.93Z" style="fill:#263238"></path><path d="M340.32,161.33c.46.67.86,1.56,1.71,1.82a6.26,6.26,0,0,0,2.69-.06.09.09,0,0,1,.08.15,3.28,3.28,0,0,1-3.3.65,2.59,2.59,0,0,1-1.43-2.51C340.07,161.24,340.26,161.23,340.32,161.33Z" style="fill:#263238"></path><path d="M344.34,154.72a8.29,8.29,0,0,0,4.65,4.76,10.28,10.28,0,0,0,2.89.76,3.88,3.88,0,0,0,.57,0,4.63,4.63,0,0,0,.54,0,.6.6,0,0,0,.59-.43v0a1.71,1.71,0,0,0,0-.25h0l0-.21c.44-1.83.85-4.65.85-4.65.6.47,3.69,2.74,3.84,1.77,1.22-8,2.56-17,2.07-25.23a.23.23,0,0,0-.45,0c-1.47,7.68-1.58,15.56-2.93,23.3a14.6,14.6,0,0,0-3.58-2c-.28,0-.71,5.48-1,6.28a.78.78,0,0,1,0,.09c-3.17-.26-5.3-1.69-7.85-4.39C344.46,154.38,344.24,154.5,344.34,154.72Z" style="fill:#263238"></path><path d="M351,159.08a9.83,9.83,0,0,1-4.49,2.17,4.49,4.49,0,0,1-2.67-.4c-1.79-.9-1.47-2.66-.8-4.08a10.41,10.41,0,0,1,1.34-2.11A12.69,12.69,0,0,0,351,159.08Z" style="fill:#263238"></path><path d="M346.51,161.25a4.49,4.49,0,0,1-2.67-.4c-1.79-.9-1.47-2.66-.8-4.08C345,157.41,346.76,159.23,346.51,161.25Z" style="fill:#ff9cbd"></path><path d="M321.51,138.81s-3.94-13.48-9.8-12.43-5.48,18.78-.4,22.9a6.23,6.23,0,0,0,9-.5Z" style="fill:#eb9481"></path><path d="M312,131.46a.08.08,0,0,0-.09.14c3.52,3,4.38,7.53,4.56,12-.7-1.92-2.07-3.3-4.58-2.54-.13,0-.08.24,0,.25a3.83,3.83,0,0,1,3.57,2.62,18.36,18.36,0,0,1,.82,3.88c.07.43.79.46.79,0v-.1C318.92,142.49,317.34,133.86,312,131.46Z" style="fill:#263238"></path><path d="M339.41,188.34l-7.48,20.41L306.08,184l-6.85,8.41s25.76,39.79,25.86,38l7.78-17.64,12.37,11.73-1.91-30.33Z" style="fill:#ebebeb"></path><path d="M345.14,209.4c-.48-5-.83-10-1.54-15,0-.18-.3-.25-.34,0-.86,4.87,1.09,24,1.21,28.56l-.06,0c-.51-.51-11.44-10.3-11.54-10.14-1.72,2.82-7.43,15.66-7.82,16.83-4.07-6.32-19.65-29.28-24.42-35.23a.18.18,0,0,0-.3.19C304,201.2,324.6,232.12,324.9,232c.21.15,7.31-15.68,8.12-18.65,1.87,2.15,12.94,13.24,13,12.5A159.12,159.12,0,0,0,345.14,209.4Z" style="fill:#263238"></path></g><g id="freepik--character-3--inject-29"><path d="M459.5,128.16c11.52,13.82,13.22,35,13.22,35s10.23,22.1,5.77,33.12A20.83,20.83,0,0,1,464,209l1.79-6.18s-4.83,7.71-18.78,9.7-31.6-3.91-40.55-9.54a36.17,36.17,0,0,1-12.66-13.42l2.67,9.47s-13.2-1.7-19.75-16.52,17.94-33,20.26-37.14,7.73-35.74,40.65-27.14C437.62,118.26,451.57,118.64,459.5,128.16Z" style="fill:#263238"></path><path d="M468.9,208.67c4-1.44,7.44-5,9.7-8.44a19.41,19.41,0,0,0,3.28-12.32c-.44-5.24-2.73-10-5-14.7-2.3-4.83-4.95-9.5-7.16-14.37-.12-.26.28-.44.44-.22a120.55,120.55,0,0,1,7.28,11.72A56.4,56.4,0,0,1,483,182.18a21.07,21.07,0,0,1,.45,11.85,20.48,20.48,0,0,1-5,8.4c-2.75,2.83-6.07,4.51-9.39,6.53A.16.16,0,1,1,468.9,208.67Z" style="fill:#263238"></path><path d="M375.25,167.78c5.1-11.33,16.31-17.77,23.67-27.37,4-5.2,7.23-11.07,12.19-15.45.14-.11.34.12.21.24-4.1,4-6.73,9-9.87,13.66a85.36,85.36,0,0,1-11.23,12.86c-7.37,7.34-16.19,16-15.71,27.25.23,5.21,2.73,11.17,7.84,13.27.2.08,0,.4-.15.3a16.58,16.58,0,0,1-8.32-10.08A21,21,0,0,1,375.25,167.78Z" style="fill:#263238"></path><path d="M374.46,170.88a21.64,21.64,0,0,1,4.12-12.42c2.66-3.55,6.54-5.94,10.39-8,4.44-2.4,9.1-4.63,12.17-8.79.13-.17.37.05.25.22-4.9,6.88-13.23,9.52-19.22,15.13-6.85,6.42-7.81,16.61-4.29,25a35.5,35.5,0,0,0,10,13.19.08.08,0,0,1-.1.12C380.39,189.39,374.18,180.78,374.46,170.88Z" style="fill:#263238"></path><path d="M387.21,320.3l.06.24c0,.11.07.25.11.43.2.81.6,2.35,1.15,4.52l5.71,22.43.85,3.27c.12.51.26,1,.38,1.54,3.95,15.47,8.93,35.08,14.16,55.6.09.37.18.73.28,1.11l2,7.73.06.28h0c0,.09.05.19.07.29,1.26,4.94,2.52,9.91,3.78,14.86h74.54c-3.15-11.25-6.34-22.57-9.44-33.48-5.13-18.13-10-35.09-13.84-48.6-4.32-15-7.44-25.82-8.4-29.14v0c-.19-.7-.3-1.06-.3-1.06Z" style="fill:#d3766a"></path><path d="M412,417.74s71.77-19,73.11-20-26.78-77.23-26.78-77.23H387.21Z" style="fill:#263238"></path><path d="M411.39,404.29c21.35-7.05,43-13.3,64.87-18.54a.21.21,0,0,1,.13.39c-21.34,7.13-43,13.3-64.86,18.62A.25.25,0,0,1,411.39,404.29Z" style="fill:#455a64"></path><path d="M456.05,320.27v0s0,.13,0,.24a2,2,0,0,1,0,.22c0,.08,0,.18,0,.29s0,.33,0,.53c0,.35-.06.76-.09,1.24h0a2,2,0,0,0,0,.25v.06c0,.31-.06.64-.09,1s-.08.92-.12,1.44l0,.32c0,.25-.05.52-.07.8s0,.34-.05.52-.06.67-.1,1-.08.91-.13,1.38q-.15,1.49-.33,3.18l-.12,1.1c-.25,2.25-.55,4.71-.89,7.34-.07.54-.14,1.09-.22,1.65-.05.34-.09.68-.14,1q-.37,2.71-.82,5.6c-.06.39-.12.78-.19,1.17-.18,1.14-.37,2.31-.57,3.48s-.43,2.5-.66,3.76c-.14.79-.29,1.58-.44,2.37l-.42,2.11c-.56,2.79-1.17,5.61-1.84,8.41-.2.88-.42,1.75-.64,2.62l-.54,2.1c-.33,1.24-.68,2.48-1,3.7-.18.64-.37,1.28-.56,1.91q-.75,2.55-1.59,5a0,0,0,0,1,0,0c-.17.49-.34,1-.52,1.45l0,0-.06,0-.11,0-.85.32c-.43.17-1,.39-1.68.68l-.5.21-2.16.95-.77.35h0l-.42.2c-3.05,1.43-7.05,3.44-11.76,6.15-.19.11-.39.22-.59.35l-.16.1-.06,0-.05,0a2.2,2.2,0,0,0-.26.15l-.77.45-.16.1-.09,0-.13.08s0,.6-.08,1.72c0,.27,0,.58,0,.91h0c0,.41,0,.85-.05,1.34s0,.9-.06,1.4l0,.8c0,.35,0,.73,0,1.11s0,.74-.05,1.13c0,.65,0,1.32-.08,2,0,1.14-.09,2.35-.14,3.64,0,.22,0,.44,0,.66,0,.44,0,.87,0,1.31,0,.28,0,.57,0,.86a.71.71,0,0,1,0,.14c0,.6,0,1.23-.07,1.86,0,.1,0,.21,0,.31-.16,4.19-.34,8.9-.54,14,0,.35,0,.71,0,1.07,0,.13,0,.27,0,.4H350.38l0-.4q.63-8.28,1.26-16.52.36-4.6.7-9.16c0-.18,0-.36,0-.55l.33-4.26c0-.55.09-1.1.12-1.64,0-.17,0-.34,0-.5.19-2.33.37-4.65.55-6.93.06-.9.13-1.78.2-2.67q.33-4.19.64-8.24.38-4.87.74-9.53c0-.41.06-.82.1-1.23q.4-5.33.8-10.26l.15-1.86c.13-1.67.26-3.31.37-4.9,0-.5.08-1,.13-1.5.05-.68.11-1.35.16-2,.11-1.36.21-2.68.31-4,0-.1,0-.19,0-.28.06-.69.11-1.36.16-2,.35-4.51.66-8.49.94-11.86l.06-.73c0-.66.1-1.29.14-1.9.18-2.28.34-4.19.46-5.67.06-.89.12-1.62.17-2.2.08-1,.12-1.52.12-1.52h96.93Z" style="fill:#d3766a"></path><path d="M421.21,425.77q.07-3.45.26-6.88c.24-4.63.51-9.24.92-13.86.23-2.6.37-5.23.69-7.83a.12.12,0,0,1,.24,0c.06,2.29-.05,4.59-.08,6.88s0,4.58-.11,6.87q-.22,6.94-.74,13.87c-.09,1.29-.21,2.57-.33,3.85a18.15,18.15,0,0,1-.55,3.75.08.08,0,0,1-.15,0,18,18,0,0,1-.18-3.28C421.16,428,421.19,426.89,421.21,425.77Z" style="fill:#263238"></path><path d="M456.05,320.27s-2.07,34-10.2,60.88c-.64,2.22-1.35,4.41-2.11,6.49,0,0-8.16,2.85-20.64,10.28,0,0-.3,7.6-.75,19.23-20.75,1-69.2-.46-75.2-2.13,3.76-49.27,12-94.73,12-94.73Z" style="fill:#263238"></path><path d="M414.12,401.65c3.26-2.27,6.79-4.17,10.25-6.12s7.12-3.92,10.81-5.63a176.41,176.41,0,0,1,22.35-8.12c.19-.06.32.26.13.34-7.29,3.13-14.35,6.72-21.6,9.93-3.65,1.62-7.32,3.17-11,4.78s-7.21,3.43-10.89,5A.08.08,0,0,1,414.12,401.65Z" style="fill:#455a64"></path><path d="M434.06,366c.09-3.57.34-7.15.52-10.72.41-8.42.74-16.9,1.52-25.31a.27.27,0,0,1,.53,0c.1,6.52-.15,13.06-.28,19.58-.07,3.26-.16,6.52-.25,9.78a91.15,91.15,0,0,0-.07,9.35c.18,2.35.7,6.92,3.76,7.21,2.89.26,4.48-2.86,5.2-5.14,1.83-5.81,2.48-12.08,3.08-18.11.35-3.58.7-7.14.91-10.73a96.51,96.51,0,0,0,.36-11c0-.24.35-.23.36,0,.2,3.68.71,7.35.83,11.05s.13,7.36-.1,11c-.23,3.52-.53,7.06-1.06,10.54a37.74,37.74,0,0,1-2.26,9.33c-1.07,2.47-2.9,4.75-5.67,5.29a5.21,5.21,0,0,1-1,.1c0,.76-.14,1.52-.19,2.27-.08,1.18-.23,2.35-.39,3.53a24.6,24.6,0,0,1-.72,3.41,12.58,12.58,0,0,1-1.2,3.27.18.18,0,0,1-.33-.1,15.93,15.93,0,0,1,.28-3.37c.16-1.14.32-2.31.55-3.44s.44-2.24.67-3.35c.16-.75.26-1.52.4-2.28a5.46,5.46,0,0,1-4.09-3.22C434.09,372.21,434,369,434.06,366Z" style="fill:#455a64"></path><path d="M423,397.2a.14.14,0,0,1,.27,0c.09,1.66.07,16.41-.56,19.56a.19.19,0,0,1-.36,0C421.81,413.58,422.74,398.84,423,397.2Z" style="fill:#455a64"></path><path d="M351.52,406c22.48.13,45,1.13,67.4,3.14a.21.21,0,0,1,0,.42c-22.5-.06-45-1.14-67.41-3.07A.25.25,0,0,1,351.52,406Z" style="fill:#455a64"></path><path d="M356.69,363.92c5.12.35,10.16,1,15.29.4a26.57,26.57,0,0,0,13.32-5.22c8.43-6.54,12.13-17.24,14.41-27.28a.18.18,0,0,1,.36.05c-.95,8.71-2.83,17.71-8.45,24.72a26.94,26.94,0,0,1-9,7.39,26.27,26.27,0,0,1-11.85,2.44,57.54,57.54,0,0,1-14.19-1.91A.3.3,0,0,1,356.69,363.92Z" style="fill:#455a64"></path><path d="M465.82,327.56c.51-.21-2.75-28.16-2.75-28.16s12.28-17.64,7.28-31.52c-2.52-7-26.16-48.74-36.93-58.11-10.11-8.79-26.83-2.11-32.9,3.84-19.25,18.87-36.23,67-47.4,110.22Z" style="fill:#dbdbdb"></path><path d="M452,289.35A62.2,62.2,0,0,0,436,292c-5.21,1.47-16.72,6-19.61,7.16a.06.06,0,1,0,0,.12A99.62,99.62,0,0,0,427.55,296c5.11-1.74,10.25-3.31,15.48-4.66a71.75,71.75,0,0,1,9-1.62A.16.16,0,0,0,452,289.35Z" style="fill:#263238"></path><path d="M461.5,292.1a49.34,49.34,0,0,0-16.76,1.48c-.07,0-.05.13,0,.12,2.78-.33,5.55-.65,8.34-.89s5.61-.37,8.41-.56A.08.08,0,0,0,461.5,292.1Z" style="fill:#263238"></path><path d="M409.69,211.71c.57,2.31,12,21,24.31,18.52,5.16-1,1.19-21,1.19-21l4.42-20.93L413.22,172S409.47,210.73,409.69,211.71Z" style="fill:#d3766a"></path><path d="M439.61,188.31l-2.75,13a61.59,61.59,0,0,1-26.58,2.26c1-11.63,2.94-31.6,2.94-31.6Z" style="fill:#263238"></path><path d="M389.81,156.13c-9,33.86,10.27,43.07,17.57,45,6.63,1.75,29.43,6.88,41.88-25.87s-.44-47.64-15.4-52.45S398.82,122.27,389.81,156.13Z" style="fill:#d3766a"></path><path d="M397.43,152.63c.82.06,1.6,0,2.42,0a3.89,3.89,0,0,0,2.46-.52,1.23,1.23,0,0,0,.28-1.49,3.07,3.07,0,0,0-2.85-1.28,4.46,4.46,0,0,0-3.1,1A1.32,1.32,0,0,0,397.43,152.63Z" style="fill:#263238"></path><path d="M420.45,160.16a22.88,22.88,0,0,1-2.23-.94,3.87,3.87,0,0,1-2.09-1.39,1.24,1.24,0,0,1,.29-1.49,3.08,3.08,0,0,1,3.12-.14,4.55,4.55,0,0,1,2.5,2.12A1.33,1.33,0,0,1,420.45,160.16Z" style="fill:#263238"></path><path d="M413.94,165.52c0-.08.15.15.13.25-.58,2.31-.85,5.06,1.09,6.29.06,0,0,.16-.05.13C412.62,171.27,413,167.62,413.94,165.52Z" style="fill:#263238"></path><path d="M416.55,163.54c3.81.52,2.47,8.11-1.06,7.62S413.35,163.09,416.55,163.54Z" style="fill:#263238"></path><path d="M418,164.2c.59.54,1.11,1.42,1.89,1.64s1.75-.42,2.49-1.08c.07-.07.13,0,.11.11-.23,1.46-1.06,2.85-2.65,2.79s-2.25-1.51-2.36-3C417.42,164.34,417.73,164,418,164.2Z" style="fill:#263238"></path><path d="M400.32,162.08c0-.09-.2.08-.22.18-.32,2.36-1.08,5-3.34,5.44-.07,0-.09.14,0,.14C399.41,167.91,400.39,164.37,400.32,162.08Z" style="fill:#263238"></path><path d="M398.63,159.27c-3.74-.92-5.31,6.62-1.85,7.47S401.76,160.05,398.63,159.27Z" style="fill:#263238"></path><path d="M397,159.44c-.67.28-1.42.88-2.14.78s-1.27-1.06-1.64-1.95c0-.1-.11-.05-.13,0-.34,1.44-.18,3,1.15,3.6s2.4-.53,3-1.89C397.35,159.78,397.23,159.33,397,159.44Z" style="fill:#263238"></path><path d="M410.52,183.56c-.64.49-1.3,1.17-2.17,1.14a6.41,6.41,0,0,1-2.47-.93.08.08,0,0,0-.11.11,3.19,3.19,0,0,0,2.83,1.67,2.52,2.52,0,0,0,2.13-1.85C410.79,183.57,410.61,183.49,410.52,183.56Z" style="fill:#263238"></path><path d="M402.31,173.25s-1.14,3.41-1.45,5.06c0,.15.36.3.91.44,0,0,0,0,.06,0a8,8,0,0,0,8.18-1.49c.15-.14,0-.35-.2-.28a12.07,12.07,0,0,1-7.56.71c0-.48,2.15-5.78,1.9-5.85a14.18,14.18,0,0,0-3.91.15c2.17-7.18,5.48-13.94,7.53-21.12a.23.23,0,0,0-.41-.19c-4,6.85-6.65,15.05-9.08,22.4C398,174,401.6,173.4,402.31,173.25Z" style="fill:#263238"></path><path d="M401.9,178.12a9.82,9.82,0,0,0,3,4,4.56,4.56,0,0,0,2.55.89c2,0,2.54-1.68,2.61-3.25a10.59,10.59,0,0,0-.21-2.49A12.74,12.74,0,0,1,401.9,178.12Z" style="fill:#263238"></path><path d="M404.87,182.13a4.56,4.56,0,0,0,2.55.89c2,0,2.54-1.68,2.61-3.25C408,179.41,405.59,180.22,404.87,182.13Z" style="fill:#ff9cbd"></path><path d="M448.61,181.71A15,15,0,0,1,442.9,168a39.1,39.1,0,0,1-13-15.83c.09.79.7,6.45,1.1,9.32-21.7-8.95-25.08-27.69-25.08-27.69-8.85,5.77-11.29,10.15-12.84,12.26,0,0,2.73-13.9,11.8-21.69,11.1-9.53,22.55-4.89,22.55-4.89a32.62,32.62,0,0,1,29.17,16.12C468,154.7,448.61,181.71,448.61,181.71Z" style="fill:#263238"></path><path d="M414.64,154.2a42.62,42.62,0,0,0,10.69,6.68,0,0,0,0,0,0,0,36.13,36.13,0,0,1-14.48-13.5,34.42,34.42,0,0,1-3.45-7.83,23.64,23.64,0,0,1-1.2-9.24.18.18,0,0,0-.36,0,27.8,27.8,0,0,0-.07,9.28,25.34,25.34,0,0,0,3.46,8.52,28.89,28.89,0,0,0,5.39,6.18Z" style="fill:#263238"></path><path d="M443.44,174.05s9.42-9.46,13.84-5.92-4,18.17-10.09,19.3a5.93,5.93,0,0,1-7.27-4.51Z" style="fill:#d3766a"></path><path d="M454.77,172.26a.08.08,0,0,1,0,.16c-4.31.93-7.08,4.29-9.24,7.9,1.46-1.28,3.23-1.81,5,0,.09.09,0,.24-.15.2a3.64,3.64,0,0,0-4.17.56,17.62,17.62,0,0,0-2.45,2.86c-.25.33-.87,0-.66-.37a.56.56,0,0,0,.05-.08C443.93,178.3,449.17,171.82,454.77,172.26Z" style="fill:#263238"></path><path d="M438.67,218.25c-.18,2.66-.82,17.6,3.26,26.18a28.14,28.14,0,0,0,15.24,14.38c10.68,4.31,17-2.5,12.86-7.95-5-6.47-10.77-12.24-13.06-16.57-2.79-5.28-4.92-14.92-5.47-16.4C450.35,214.75,438.91,214.93,438.67,218.25Z" style="fill:#d3766a"></path><path d="M451.62,218.81c1.1-1.07,2.64-4.89,3.59-5.59s3.72-1.88,2.7-3.28-4.91.85-5.79,1.37.73-9.75-1.7-10.18-2.84,6.71-3.33,6.63-.85-7.54-3-7.68-1,7.84-1.15,7.85.92-6-.91-6.44-2,7.76-2.37,7.79-1.79-4.54-3.56-3.89,1.28,7.38,1.46,8,.68,5.69,1.59,6.34S450.84,219.58,451.62,218.81Z" style="fill:#d3766a"></path><path d="M450.19,212.67a19.79,19.79,0,0,0-4.95-.76,18.65,18.65,0,0,0-5,.75c-.12,0-.09.23,0,.19a22.1,22.1,0,0,1,4.93-.54,19.91,19.91,0,0,1,4.93.51C450.24,212.84,450.28,212.69,450.19,212.67Z" style="fill:#263238"></path><path d="M443,207c0-.51,0-1,0-1.55s0-1,0-1.44-.08-.94-.06-1.5c0-.17,0-.19-.07,0a23.16,23.16,0,0,0-.21,2.93c0,.5.05,1,.08,1.49a14.21,14.21,0,0,0,.16,1.6c0,.07.12.07.12,0C443,208,443,207.52,443,207Z" style="fill:#263238"></path><path d="M457.17,258.81a28.14,28.14,0,0,1-15.24-14.38c-3.1-6.53-3.48-16.73-3.4-22.42l13.69-1.58c1,3.6,2.68,9.93,4.75,13.87,2.29,4.32,8.09,10.1,13.06,16.56C474.21,256.31,467.84,263.11,457.17,258.81Z" style="fill:#37474f"></path><path d="M474.19,317.21c-.17.69,1.33,6.12.48,7.19s-28.62,2.55-29.33-1.07c-.77-3.91,11.9-7.92,11.55-8.57,0,0-3.66-6.14-4.85-17.28-1-9.24.32-13.94,5.69-22,7.79-11.72,26.15-6.51,26.38,6.46.16,8.53-9,16.83-9.84,20.08C473.22,306.15,474.24,317,474.19,317.21Z" style="fill:#263238"></path><path d="M451.66,275.49c.26-.54,9.63,1.21,19.82.13,12.36-1.31,19.87-5.13,20.26-4.41,1.52,2.74,4.39,12.88,2,21.29s-15.95,11.29-25.2,10.83-23.65-5.46-17.25-25.77A4,4,0,0,1,451.66,275.49Z" style="fill:#455a64"></path><path d="M492,271.72c-13.5,7.37-39.2,5.18-40.34,3.77,0,0,2.57-19.68,7.13-27.28.8-1.32,14.92-4,19.13-.91C485.17,252.6,492.24,271.59,492,271.72Z" style="fill:#455a64"></path><path d="M468.73,322.43c-.43.56-1.18,6.14-2.38,6.79s-27.33-8.88-26.56-12.49c.82-3.89,14-2.6,14-3.34,0,0-.95-7.08,2.32-17.8,2.71-8.9,5.76-12.7,13.88-18,11.76-7.73,26.6,4.26,21.73,16.28-3.21,7.91-14.89,12-16.93,14.62C472.17,311.87,468.84,322.29,468.73,322.43Z" style="fill:#37474f"></path><path d="M457.37,246.64c0-.62-2.74-7-2.17-7.53s13.29-2.66,14.14-1.66,2.93,6.91,2.84,8.39-9.3,9.13-12.43,8.53S457.43,251.48,457.37,246.64Z" style="fill:#d3766a"></path><path d="M485.08,247c-7,5.21-15.1,4.28-19.33,3-6.56-2-23-10.35-20.86-22.82,1.46-8.43,12.24-24.06,18.31-26.5,8.46-3.39,23.79,1.39,31,12.28C500,221.68,492.08,241.74,485.08,247Z" style="fill:#d3766a"></path><path d="M471.61,220a13.51,13.51,0,0,1-1.14-1.13,2.59,2.59,0,0,1-.94-1.38.83.83,0,0,1,.55-.84,2,2,0,0,1,2,.7,3,3,0,0,1,1,1.92A.88.88,0,0,1,471.61,220Z" style="fill:#263238"></path><path d="M456.6,212.05a13.39,13.39,0,0,0,1.55.35,2.53,2.53,0,0,0,1.65.06.82.82,0,0,0,.42-.91,2.06,2.06,0,0,0-1.62-1.27,3,3,0,0,0-2.15.18A.87.87,0,0,0,456.6,212.05Z" style="fill:#263238"></path><path d="M462.83,229.82a5.6,5.6,0,0,1-.15.68c-.25.9-.89,2.36-2.37,2.22a2.64,2.64,0,0,1-1.48-.71,7,7,0,0,1-1.61-3A6.27,6.27,0,0,0,462.83,229.82Z" style="fill:#263238"></path><path d="M462.68,230.5c-.25.9-.89,2.36-2.37,2.22a2.64,2.64,0,0,1-1.48-.71,3.86,3.86,0,0,1,1.93-1.37A4,4,0,0,1,462.68,230.5Z" style="fill:#ff9cbd"></path><path d="M468.59,221.37c2.47,1.26-.21,6.1-2.5,4.94S466.52,220.32,468.59,221.37Z" style="fill:#263238"></path><path d="M457,215.45c-2-1.37-4.87,3.15-3,4.41S458.63,216.59,457,215.45Z" style="fill:#263238"></path><path d="M461.55,216.67c-1.88,2.85-1.11,1.89-3.11,4.65-.69-.28-3.77-1.74-3.68-1.36a30.67,30.67,0,0,0,1.89,4.25c-.75.65-2.57.85-2.53.95,1.89,5.67,6.69,5.4,8.58,4.79.38-.12.27-.17.06-.14-1.72.26-6.17-.26-7.55-4.18a4.87,4.87,0,0,0,2.06-1.16c.07-.06-1.12-2.42-1.49-3.56,1,.4,2.08,1,2.78,1.29.16.07,1.81-2.07,3.26-5.39A.15.15,0,0,0,461.55,216.67Z" style="fill:#263238"></path><path d="M500.85,220.7a7,7,0,0,0-2-2.79,9,9,0,0,0-1.51-1.1,2.42,2.42,0,0,0,0-.28,14.13,14.13,0,0,0,.14-2.35,22.92,22.92,0,0,0-.56-4.13,22.64,22.64,0,0,0-2.59-7.21s-.1,0-.07,0c1.26,2.26,1.5,4.82,1.91,7.32.11.71.21,1.43.28,2.16-.1-.36-.21-.72-.34-1.08a18.7,18.7,0,0,0-.6-2.12,17.63,17.63,0,0,0-3.86-6.47,13.88,13.88,0,0,0-6.1-3.7,27.29,27.29,0,0,0-3.87-.85c-.58-.1-1.15-.18-1.73-.25l-2.06-.26h0a24.19,24.19,0,0,1-9.1-2.48s0,0,0,0c2.79,1.65,5.91,2.15,9.05,2.61l2,.31c.56.09,1.13.18,1.69.3s1.17.23,1.75.38a15.81,15.81,0,0,1,6.68,3.38,17.37,17.37,0,0,1,3.42,4.25,19.78,19.78,0,0,0-10-7,20.17,20.17,0,0,0-2.1-.53c-.55-.11-1.1-.2-1.66-.28s-1.37-.16-2.07-.22c-1.1-.1-2.2-.18-3.31-.27-3.48-.29-6.92-1-9.64-3.34,0,0-.1,0-.06.07,3.26,3.34,8.14,3.58,12.66,4.17.69.09,1.36.18,2,.3.5.09,1,.18,1.47.3l.09,0a22.36,22.36,0,0,1,10.52,5.87,25.29,25.29,0,0,0-10.92-5.31c-.49-.12-1-.23-1.5-.32s-1.3-.25-2-.34c-.85-.14-1.74-.24-2.67-.32-12.61-1.1-11.77-6.43-11.77-6.43a7.73,7.73,0,0,0,1.32,7.68,13.56,13.56,0,0,0,4.07,3.36,7.45,7.45,0,0,0-3.6,5.19,8.45,8.45,0,0,0,0,3.21s0,0,0,0a8.44,8.44,0,0,1,.27-3.28,8.82,8.82,0,0,1,3.54-5l.15.09a9.23,9.23,0,0,0-3.43,4.79,9.09,9.09,0,0,0-.18,4.37s1.46-5.77,6.28-5.94a4.82,4.82,0,0,1,.77,0l.15,0c3.16.45,4.57,3.76,6.84,5.92-1.75-1.19-2.9-3-4.58-4.31a4.57,4.57,0,0,0-2.78-1.1l-.39,0a1.26,1.26,0,0,0-.27,0,6.61,6.61,0,0,0-2,.71,7.19,7.19,0,0,0-3.52,4s0,0,.05,0a7.38,7.38,0,0,1,3.63-3.85,5.83,5.83,0,0,1,.94-.34l.36-.08a4,4,0,0,1,3.35.83,19.81,19.81,0,0,1,2.34,2.33,10,10,0,0,0,4.77,3.31,7.77,7.77,0,0,0,1.25.21,7.46,7.46,0,0,0,3.33-.18l-.45.52a19.19,19.19,0,0,0-7.14,9.57,18.76,18.76,0,0,0-.19,10.45,19.53,19.53,0,0,0,1.28,3.5c.07.16.15.31.23.46a2.44,2.44,0,0,0,.14.28s.12,0,.09,0l-.15-.33c-.08-.17-.15-.34-.22-.51a19,19,0,0,1-1.18-3.87A19.94,19.94,0,0,1,484.21,216l-.38.5c-2.66,2.85-5,6-5.65,9.94a10.73,10.73,0,0,0,1.24,7l.22.35a25,25,0,0,0,1.91,2.59l.22.27.09.22.42.95c.06.14.12.26.18.39.81,1.83,1.59,3.48,2.07,4.71a6,6,0,0,1,.47,1.7,4,4,0,0,1-1.44,3.39,0,0,0,0,0,0,0c.26,0,4.94-.87,8.76-6.58.13-.18.24-.36.36-.55a33.84,33.84,0,0,0,3.93-5.4c2.21-3.78,4.35-8.61,3.66-13.09A8.14,8.14,0,0,0,498.9,219a9.08,9.08,0,0,1,1.68,2.23c1,2,1,4.3,1.05,6.46,0,0,0,0,0,0A18.15,18.15,0,0,0,500.85,220.7ZM480,233.6a.75.75,0,0,1-.07-.12,11.63,11.63,0,0,1-.87-7,18,18,0,0,1,3-7.39,19,19,0,0,0-2.77,7.34,16.86,16.86,0,0,0,1.23,7c.29.83.61,1.67.95,2.49A16.9,16.9,0,0,1,480,233.6Zm19.66-9a22.84,22.84,0,0,1-2.25,8.15,32.5,32.5,0,0,1-2.47,4.44c5.21-9.46,4.51-15.38,3.49-18.23A10.91,10.91,0,0,1,499.64,224.55Z" style="fill:#263238"></path><path d="M477.54,234.86s6.58-4,10.11-2.2c3.74,1.94.7,9-3.37,10.33-4.77,1.55-8.6-2.21-8.6-2.21Z" style="fill:#d3766a"></path><path d="M484.32,235.92a10,10,0,0,1,2.43-.24c.09,0,.1-.15,0-.17-3.22-.42-7.19,1-8.53,4.18,0,.11.1.21.18.12s.44-.45.65-.68a6.52,6.52,0,0,1,2.69-.95,5.6,5.6,0,0,1,2.87.61c.1.05.17-.1.07-.16a5.39,5.39,0,0,0-4.41-.67,8.39,8.39,0,0,1,2-1.35,10,10,0,0,1,2-.69Z" style="fill:#263238"></path><path d="M476.49,241.08s0,0,0,0S476.51,241.09,476.49,241.08Z" style="fill:#263238"></path><path d="M451.28,213.19c-1,1.6-1.93,3.23-2.78,4.91a42.77,42.77,0,0,0-2.26,5.15,15.66,15.66,0,0,0-.36,10.83,15.21,15.21,0,0,0,2.7,4.78,24,24,0,0,0,4.05,3.81c1.49,1.12,3.11,2.11,4.66,3.19a20.85,20.85,0,0,1,2.22,1.78,5.64,5.64,0,0,1,1.57,2.34c-.76-1.77-2.45-2.81-4-3.81s-3.22-1.94-4.79-3a18.64,18.64,0,0,1-7.12-8.81,16.05,16.05,0,0,1,.53-11.28A44.75,44.75,0,0,1,451.28,213.19Z" style="fill:#263238"></path><path d="M430.29,262c2,1.46,13.27,10.45,22,11.49,9.27,1.11,17.63-3.6,20.77-5.86,8.62-6.21,2.31-14.79-4-14.21-7.5.69-12.78,3.69-17.29,3.34-5.5-.43-14-4.64-15.44-4.94C433.31,251.2,427.82,260.22,430.29,262Z" style="fill:#d3766a"></path><path d="M437.11,252.21c-.3-1.39-2.53-4.47-2.6-5.55s.37-3.83-1.23-3.73-1.76,4.25-1.78,5.2-7.25-5.38-8.78-3.69,3.83,5.51,3.53,5.86-6.3-3.05-7.45-1.46,5.62,4.63,5.56,4.76-4.2-3.65-5.48-2.46,5.07,5.39,4.91,5.69-4.42-.84-4.78.86,6.39,2.63,7,2.8,4.78,2.28,5.73,1.89S437.32,253.2,437.11,252.21Z" style="fill:#d3766a"></path><path d="M420.06,250.9c-.1-.06-.17,0-.08.07a19.57,19.57,0,0,0,5.89,3.19s0,0,0,0C424.93,253.6,421.14,251.58,420.06,250.9Z" style="fill:#263238"></path><path d="M473,267.65c-3.14,2.28-11.5,7-20.77,5.87-6.72-.81-15.12-6.57-19.47-9.42l5.56-11.66c3.22,1,9.19,4,13.4,4.34,4.5.35,9.8-2.64,17.29-3.32C475.36,252.87,481.66,261.45,473,267.65Z" style="fill:#37474f"></path><path d="M410.12,234.2c-.86,11.35-9.31,94.17-8.43,98.22,0,0-39.85,34.83-52.4,10.77-8.15-15.63,23.47-93.4,41.7-118.25C399.36,213.52,411.92,210.38,410.12,234.2Z" style="fill:#d3766a"></path><path d="M360.24,273l48-4a311,311,0,0,0,3.46-36.89c.75-20.94-8.87-25.42-26.24-3.14A179.47,179.47,0,0,0,360.24,273Z" style="fill:#dbdbdb"></path><path d="M407.66,261.93c-3.59-.11-7.22.32-10.8.52-3.42.18-6.85.37-10.26.67q-10.64.93-21.2,2.3c-.13,0-.12.22,0,.21,7-.36,14-.81,21-1.35,3.49-.27,7-.63,10.44-1s7.23-.49,10.77-1.13C407.79,262.12,407.79,261.93,407.66,261.93Z" style="fill:#263238"></path><path d="M409.58,264.15c.28-1.73.49-3.47.68-5.22l.12-1.08a64.18,64.18,0,0,0,1.81-6.33c0-.08-.09-.12-.12,0-.6,1.57-1.08,3.19-1.53,4.82a77.46,77.46,0,0,0,.49-8.05.07.07,0,0,0-.13,0c-.61,3.47-1,7-1.47,10.46-.24,1.69-1.2,10-1.3,10a9.22,9.22,0,0,0-1.48.24c-.27.12-.1.15,0,.15s2.16.1,2.16.1S409.35,265.64,409.58,264.15Z" style="fill:#263238"></path><path d="M504.31,257.6a6,6,0,0,1,1,7.13s5.75-.89,8.37,3.17c1.35,2.09-.8,6.08-.8,6.08s4.64-.52,6.75,3.24c1.68,3-.73,6.54-.73,6.54s4.68,1.58,5.41,5.18c1.49,7.29-22.53,24.35-32.52,18.13-4.66-2.89,1.44-6.74,1.44-6.74s-10.1,3.42-13.75-1.45S484,289.5,484,289.5s-9.82,3.22-13.08-2.2c-3.41-5.64,5.59-8.76,5.59-8.76s-7.91.18-9.46-4.55c-2.57-7.8,15.73-8.81,20.12-13.81l-5.74-8.9S500.78,253.71,504.31,257.6Z" style="fill:#d3766a"></path><path d="M518.56,284.38a.08.08,0,0,1,.11.11c-6.53,7.53-16,13.81-25.79,16.09-.32.08-.58-.41-.25-.56C502.25,295.74,510.45,291.17,518.56,284.38Z" style="fill:#263238"></path><path d="M513,274c.09-.08.21.07.13.16-6.78,7.73-17.66,14.5-29.23,15.81-.4,0-.8-.31-.34-.4C491.17,288.07,505.72,280.1,513,274Z" style="fill:#263238"></path><path d="M475.66,278.37c11-1.68,20.44-6.73,29.35-13.31.11-.08.22.09.14.19-3.48,4.4-9.59,8-14.58,10.4a29.48,29.48,0,0,1-14.85,3.11C475.51,278.75,475.42,278.41,475.66,278.37Z" style="fill:#263238"></path><path d="M432.56,353.7c19.94-1.82,41.1-6.58,56.84-20.32a10.39,10.39,0,0,0,3.52-5.8c7.17-6,6.47-11.24,6.47-11.24,4.95-7.66,3.51-12.88,3.51-12.88s8.34-7.18,4.83-12.94c-3.9-6.47-14.85,4.88-24.69,7.44-22.53,5.86-56.21,7.9-62.87,8.94Z" style="fill:#d3766a"></path><path d="M463.75,320.7c6.6-1.86,13.12-3.51,19.44-6.25,6.92-3,13.08-7.07,19.46-11a.18.18,0,0,1,.21.29c-10.4,9-25.43,15.41-39,17.3C463.5,321.05,463.42,320.8,463.75,320.7Z" style="fill:#263238"></path><path d="M465.31,334.82c6.32-2.17,17.4-6,33.94-18.65.06-.05.15,0,.09.09a71.07,71.07,0,0,1-33.93,18.86C465,335.22,464.89,335,465.31,334.82Z" style="fill:#263238"></path><path d="M466.29,342.39c10.61-4.09,16.78-8,26.56-14.82.06,0,.14,0,.08.09-10.3,8.91-15.05,11-26.55,15.11C466,342.92,465.88,342.55,466.29,342.39Z" style="fill:#263238"></path><path d="M455.44,303.31c-3.24-.4-3.05-2.1,1.91-5.1S484.5,287.54,481.17,280s-34.47,3.75-42.35,9.38-18.65,17.49-18.65,17.49C426.67,305.93,442.66,305.06,455.44,303.31Z" style="fill:#d3766a"></path><path d="M461.07,280a50.17,50.17,0,0,1,9.74-2.68,24.64,24.64,0,0,1,5.09-.4,11.18,11.18,0,0,1,2.61.37,5.22,5.22,0,0,1,2.43,1.35,3.76,3.76,0,0,1,1,2.69,5.59,5.59,0,0,1-.79,2.64,14,14,0,0,1-3.51,3.82,37.27,37.27,0,0,1-8.74,5.06c1.44-.86,2.87-1.73,4.24-2.69a36.53,36.53,0,0,0,3.94-3,14.48,14.48,0,0,0,3.13-3.67,4.66,4.66,0,0,0,.62-2.13,2.66,2.66,0,0,0-.7-1.91c-1-1-2.68-1.33-4.27-1.42a29.17,29.17,0,0,0-4.93.19c-1.65.17-3.29.45-4.93.77S462.71,279.58,461.07,280Z" style="fill:#263238"></path><path d="M479.42,298.85a39,39,0,0,0,5.54-1.71,47.91,47.91,0,0,0,5.13-2.65c1.68-1,3.38-1.92,5.09-2.83s3.38-1.86,5.21-2.69a11.13,11.13,0,0,1,2.9-.85,6.14,6.14,0,0,1,3.11.29,4,4,0,0,1,2.27,2.23,6.51,6.51,0,0,1,.39,3.07,12.11,12.11,0,0,1-2.05,5.58,18.43,18.43,0,0,1-4,4.3l.05-.18a7,7,0,0,1,.2,2,8.78,8.78,0,0,1-.3,2,10.23,10.23,0,0,0,.12-2,7.29,7.29,0,0,0-.32-1.93l0-.1.09-.08a20.54,20.54,0,0,0,3.67-4.39,12,12,0,0,0,1.73-5.3,5.54,5.54,0,0,0-.36-2.64,3.09,3.09,0,0,0-1.78-1.71c-1.65-.6-3.58-.11-5.3.57-3.46,1.59-6.86,3.54-10.33,5.27a44.83,44.83,0,0,1-5.31,2.44A33,33,0,0,1,479.42,298.85Z" style="fill:#263238"></path><path d="M419.64,306.62c6.38.77,34.85,40.12,25.93,43.23-42,14.62-79.71,6.92-87.7,3.27-10.48-4.79-11.94-19.1-7.88-25.45C355.88,318.46,413.33,305.85,419.64,306.62Z" style="fill:#d3766a"></path><path d="M370.21,317.23c21.33-9.55,49.9-11,50-11,.42-.11,1.06.59.82.66-4.42,1.18-34.28,5.51-50.46,10.91C370.37,317.81,370.06,317.29,370.21,317.23Z" style="fill:#263238"></path></g><g id="freepik--Table--inject-29"><polygon points="58.84 432.2 137.88 431.96 216.92 431.87 375 431.7 533.08 431.87 612.12 431.95 691.16 432.2 612.12 432.44 533.08 432.53 375 432.7 216.92 432.53 137.88 432.44 58.84 432.2" style="fill:#263238"></polygon></g><g id="freepik--Hearts--inject-29"><path d="M253.69,145.54c1.73,9.73,10.29,17.7,10.29,17.7s11.49-2.11,18.18-9.38c5.58-6.06,5.6-14.38.55-17.67-7.24-4.72-13.32,8.52-13.32,8.52s2-14.43-6.65-14.35C256.72,130.42,252.25,137.43,253.69,145.54Z" style="fill:#F36DA8"></path><path d="M150.4,176.11c6,4.09,14.61,3.68,14.61,3.68s4.8-7.15,4.41-14.41c-.33-6-4.7-10.33-9-9.36-6.21,1.38-2.36,11.39-2.36,11.39s-6.57-8.47-11-3.87C144,166.74,145.39,172.7,150.4,176.11Z" style="fill:#F36DA8"></path><path d="M568.48,225.64c-.51,7.25,4.17,14.48,4.17,14.48s8.58.55,14.66-3.44c5.07-3.33,6.57-9.26,3.56-12.51-4.32-4.67-11,3.68-11,3.68s4-9.93-2.17-11.43C573.35,215.38,568.91,219.59,568.48,225.64Z" style="fill:#F36DA8"></path><path d="M236.06,106.39c2.43,4.15,7.68,6.35,7.68,6.35s4.9-2.9,6.73-7.35c1.53-3.71.14-7.51-2.72-8.16-4.11-.94-4.66,6.13-4.66,6.13s-1.51-6.93-5.45-5.44C234.9,99,234,102.92,236.06,106.39Z" style="fill:#F36DA8"></path><path d="M589.52,201.05c2.43,4.16,7.68,6.36,7.68,6.36s4.9-2.9,6.73-7.35c1.53-3.71.14-7.51-2.72-8.16-4.11-.94-4.66,6.13-4.66,6.13s-1.51-6.93-5.45-5.44C588.36,193.63,587.5,197.59,589.52,201.05Z" style="fill:#F36DA8"></path></g></svg>